%TF.GenerationSoftware,KiCad,Pcbnew,6.0.9-8da3e8f707~117~ubuntu22.04.1*%
%TF.CreationDate,2022-11-29T09:47:06-05:00*%
%TF.ProjectId,RFTransmitterV3,52465472-616e-4736-9d69-747465725633,rev?*%
%TF.SameCoordinates,Original*%
%TF.FileFunction,Legend,Top*%
%TF.FilePolarity,Positive*%
%FSLAX46Y46*%
G04 Gerber Fmt 4.6, Leading zero omitted, Abs format (unit mm)*
G04 Created by KiCad (PCBNEW 6.0.9-8da3e8f707~117~ubuntu22.04.1) date 2022-11-29 09:47:06*
%MOMM*%
%LPD*%
G01*
G04 APERTURE LIST*
%ADD10C,0.300000*%
%ADD11C,0.150000*%
%ADD12C,0.250000*%
%ADD13C,0.120000*%
%ADD14C,0.100000*%
G04 APERTURE END LIST*
D10*
X120836861Y-105416732D02*
X121122575Y-105511970D01*
X121598765Y-105511970D01*
X121789242Y-105416732D01*
X121884480Y-105321494D01*
X121979718Y-105131018D01*
X121979718Y-104940542D01*
X121884480Y-104750066D01*
X121789242Y-104654828D01*
X121598765Y-104559589D01*
X121217813Y-104464351D01*
X121027337Y-104369113D01*
X120932099Y-104273875D01*
X120836861Y-104083399D01*
X120836861Y-103892923D01*
X120932099Y-103702447D01*
X121027337Y-103607209D01*
X121217813Y-103511970D01*
X121694004Y-103511970D01*
X121979718Y-103607209D01*
X122836861Y-105511970D02*
X122836861Y-103511970D01*
X123694004Y-105511970D02*
X123694004Y-104464351D01*
X123598765Y-104273875D01*
X123408289Y-104178637D01*
X123122575Y-104178637D01*
X122932099Y-104273875D01*
X122836861Y-104369113D01*
X124646385Y-105511970D02*
X124646385Y-104178637D01*
X124646385Y-103511970D02*
X124551146Y-103607209D01*
X124646385Y-103702447D01*
X124741623Y-103607209D01*
X124646385Y-103511970D01*
X124646385Y-103702447D01*
X125313051Y-104178637D02*
X126074956Y-104178637D01*
X125598765Y-103511970D02*
X125598765Y-105226256D01*
X125694004Y-105416732D01*
X125884480Y-105511970D01*
X126074956Y-105511970D01*
X127408289Y-104464351D02*
X127694004Y-104559589D01*
X127789242Y-104654828D01*
X127884480Y-104845304D01*
X127884480Y-105131018D01*
X127789242Y-105321494D01*
X127694004Y-105416732D01*
X127503527Y-105511970D01*
X126741623Y-105511970D01*
X126741623Y-103511970D01*
X127408289Y-103511970D01*
X127598765Y-103607209D01*
X127694004Y-103702447D01*
X127789242Y-103892923D01*
X127789242Y-104083399D01*
X127694004Y-104273875D01*
X127598765Y-104369113D01*
X127408289Y-104464351D01*
X126741623Y-104464351D01*
X129027337Y-105511970D02*
X128836861Y-105416732D01*
X128741623Y-105321494D01*
X128646385Y-105131018D01*
X128646385Y-104559589D01*
X128741623Y-104369113D01*
X128836861Y-104273875D01*
X129027337Y-104178637D01*
X129313051Y-104178637D01*
X129503527Y-104273875D01*
X129598765Y-104369113D01*
X129694004Y-104559589D01*
X129694004Y-105131018D01*
X129598765Y-105321494D01*
X129503527Y-105416732D01*
X129313051Y-105511970D01*
X129027337Y-105511970D01*
X130360670Y-105511970D02*
X131408289Y-104178637D01*
X130360670Y-104178637D02*
X131408289Y-105511970D01*
X133408289Y-103511970D02*
X134074956Y-105511970D01*
X134741623Y-103511970D01*
X136265432Y-104178637D02*
X136265432Y-105511970D01*
X135789242Y-103416732D02*
X135313051Y-104845304D01*
X136551146Y-104845304D01*
D11*
X134819047Y-95607142D02*
X134771428Y-95654761D01*
X134628571Y-95702380D01*
X134533333Y-95702380D01*
X134390476Y-95654761D01*
X134295238Y-95559523D01*
X134247619Y-95464285D01*
X134200000Y-95273809D01*
X134200000Y-95130952D01*
X134247619Y-94940476D01*
X134295238Y-94845238D01*
X134390476Y-94750000D01*
X134533333Y-94702380D01*
X134628571Y-94702380D01*
X134771428Y-94750000D01*
X134819047Y-94797619D01*
X135247619Y-95702380D02*
X135247619Y-94702380D01*
X135676190Y-95702380D02*
X135676190Y-95178571D01*
X135628571Y-95083333D01*
X135533333Y-95035714D01*
X135390476Y-95035714D01*
X135295238Y-95083333D01*
X135247619Y-95130952D01*
X136580952Y-95702380D02*
X136580952Y-95178571D01*
X136533333Y-95083333D01*
X136438095Y-95035714D01*
X136247619Y-95035714D01*
X136152380Y-95083333D01*
X136580952Y-95654761D02*
X136485714Y-95702380D01*
X136247619Y-95702380D01*
X136152380Y-95654761D01*
X136104761Y-95559523D01*
X136104761Y-95464285D01*
X136152380Y-95369047D01*
X136247619Y-95321428D01*
X136485714Y-95321428D01*
X136580952Y-95273809D01*
X137057142Y-95035714D02*
X137057142Y-95702380D01*
X137057142Y-95130952D02*
X137104761Y-95083333D01*
X137200000Y-95035714D01*
X137342857Y-95035714D01*
X137438095Y-95083333D01*
X137485714Y-95178571D01*
X137485714Y-95702380D01*
X137961904Y-95035714D02*
X137961904Y-95702380D01*
X137961904Y-95130952D02*
X138009523Y-95083333D01*
X138104761Y-95035714D01*
X138247619Y-95035714D01*
X138342857Y-95083333D01*
X138390476Y-95178571D01*
X138390476Y-95702380D01*
X139247619Y-95654761D02*
X139152380Y-95702380D01*
X138961904Y-95702380D01*
X138866666Y-95654761D01*
X138819047Y-95559523D01*
X138819047Y-95178571D01*
X138866666Y-95083333D01*
X138961904Y-95035714D01*
X139152380Y-95035714D01*
X139247619Y-95083333D01*
X139295238Y-95178571D01*
X139295238Y-95273809D01*
X138819047Y-95369047D01*
X139866666Y-95702380D02*
X139771428Y-95654761D01*
X139723809Y-95559523D01*
X139723809Y-94702380D01*
X140961904Y-95654761D02*
X141104761Y-95702380D01*
X141342857Y-95702380D01*
X141438095Y-95654761D01*
X141485714Y-95607142D01*
X141533333Y-95511904D01*
X141533333Y-95416666D01*
X141485714Y-95321428D01*
X141438095Y-95273809D01*
X141342857Y-95226190D01*
X141152380Y-95178571D01*
X141057142Y-95130952D01*
X141009523Y-95083333D01*
X140961904Y-94988095D01*
X140961904Y-94892857D01*
X141009523Y-94797619D01*
X141057142Y-94750000D01*
X141152380Y-94702380D01*
X141390476Y-94702380D01*
X141533333Y-94750000D01*
X142342857Y-95654761D02*
X142247619Y-95702380D01*
X142057142Y-95702380D01*
X141961904Y-95654761D01*
X141914285Y-95559523D01*
X141914285Y-95178571D01*
X141961904Y-95083333D01*
X142057142Y-95035714D01*
X142247619Y-95035714D01*
X142342857Y-95083333D01*
X142390476Y-95178571D01*
X142390476Y-95273809D01*
X141914285Y-95369047D01*
X142961904Y-95702380D02*
X142866666Y-95654761D01*
X142819047Y-95559523D01*
X142819047Y-94702380D01*
X143723809Y-95654761D02*
X143628571Y-95702380D01*
X143438095Y-95702380D01*
X143342857Y-95654761D01*
X143295238Y-95559523D01*
X143295238Y-95178571D01*
X143342857Y-95083333D01*
X143438095Y-95035714D01*
X143628571Y-95035714D01*
X143723809Y-95083333D01*
X143771428Y-95178571D01*
X143771428Y-95273809D01*
X143295238Y-95369047D01*
X144628571Y-95654761D02*
X144533333Y-95702380D01*
X144342857Y-95702380D01*
X144247619Y-95654761D01*
X144200000Y-95607142D01*
X144152380Y-95511904D01*
X144152380Y-95226190D01*
X144200000Y-95130952D01*
X144247619Y-95083333D01*
X144342857Y-95035714D01*
X144533333Y-95035714D01*
X144628571Y-95083333D01*
X144914285Y-95035714D02*
X145295238Y-95035714D01*
X145057142Y-94702380D02*
X145057142Y-95559523D01*
X145104761Y-95654761D01*
X145200000Y-95702380D01*
X145295238Y-95702380D01*
X134047619Y-65439896D02*
X133857142Y-65439896D01*
X133761904Y-65487516D01*
X133714285Y-65535135D01*
X133619047Y-65677992D01*
X133571428Y-65868468D01*
X133571428Y-66249420D01*
X133619047Y-66344658D01*
X133666666Y-66392277D01*
X133761904Y-66439896D01*
X133952380Y-66439896D01*
X134047619Y-66392277D01*
X134095238Y-66344658D01*
X134142857Y-66249420D01*
X134142857Y-66011325D01*
X134095238Y-65916087D01*
X134047619Y-65868468D01*
X133952380Y-65820849D01*
X133761904Y-65820849D01*
X133666666Y-65868468D01*
X133619047Y-65916087D01*
X133571428Y-66011325D01*
X134571428Y-66344658D02*
X134619047Y-66392277D01*
X134571428Y-66439896D01*
X134523809Y-66392277D01*
X134571428Y-66344658D01*
X134571428Y-66439896D01*
X135523809Y-65439896D02*
X135047619Y-65439896D01*
X135000000Y-65916087D01*
X135047619Y-65868468D01*
X135142857Y-65820849D01*
X135380952Y-65820849D01*
X135476190Y-65868468D01*
X135523809Y-65916087D01*
X135571428Y-66011325D01*
X135571428Y-66249420D01*
X135523809Y-66344658D01*
X135476190Y-66392277D01*
X135380952Y-66439896D01*
X135142857Y-66439896D01*
X135047619Y-66392277D01*
X135000000Y-66344658D01*
X135857142Y-65439896D02*
X136190476Y-66439896D01*
X136523809Y-65439896D01*
D12*
X137160000Y-80732380D02*
X137160000Y-80970476D01*
X136921904Y-80875238D02*
X137160000Y-80970476D01*
X137398095Y-80875238D01*
X137017142Y-81160952D02*
X137160000Y-80970476D01*
X137302857Y-81160952D01*
D11*
X130718809Y-65487516D02*
X130623571Y-65439896D01*
X130480714Y-65439896D01*
X130337856Y-65487516D01*
X130242618Y-65582754D01*
X130194999Y-65677992D01*
X130147380Y-65868468D01*
X130147380Y-66011325D01*
X130194999Y-66201801D01*
X130242618Y-66297039D01*
X130337856Y-66392277D01*
X130480714Y-66439896D01*
X130575952Y-66439896D01*
X130718809Y-66392277D01*
X130766428Y-66344658D01*
X130766428Y-66011325D01*
X130575952Y-66011325D01*
X131194999Y-66439896D02*
X131194999Y-65439896D01*
X131766428Y-66439896D01*
X131766428Y-65439896D01*
X132242618Y-66439896D02*
X132242618Y-65439896D01*
X132480714Y-65439896D01*
X132623571Y-65487516D01*
X132718809Y-65582754D01*
X132766428Y-65677992D01*
X132814047Y-65868468D01*
X132814047Y-66011325D01*
X132766428Y-66201801D01*
X132718809Y-66297039D01*
X132623571Y-66392277D01*
X132480714Y-66439896D01*
X132242618Y-66439896D01*
X147325501Y-82947543D02*
X146753081Y-82846528D01*
X146921440Y-83351604D02*
X146214333Y-82644498D01*
X146483707Y-82375124D01*
X146584722Y-82341452D01*
X146652066Y-82341452D01*
X146753081Y-82375124D01*
X146854096Y-82476139D01*
X146887768Y-82577154D01*
X146887768Y-82644498D01*
X146854096Y-82745513D01*
X146584722Y-83014887D01*
X147258157Y-82274108D02*
X147493860Y-82038406D01*
X147965264Y-82307780D02*
X147628547Y-82644498D01*
X146921440Y-81937391D01*
X147258157Y-81600673D01*
X148268310Y-82004734D02*
X147561203Y-81297628D01*
X147729562Y-81129269D01*
X147864249Y-81061925D01*
X147998936Y-81061925D01*
X148099951Y-81095597D01*
X148268310Y-81196612D01*
X148369325Y-81297628D01*
X148470340Y-81465986D01*
X148504012Y-81567002D01*
X148504012Y-81701689D01*
X148436669Y-81836376D01*
X148268310Y-82004734D01*
X149211119Y-79715055D02*
X149110104Y-79748727D01*
X149009088Y-79849742D01*
X148941745Y-79984429D01*
X148941745Y-80119116D01*
X148975417Y-80220132D01*
X149076432Y-80388490D01*
X149177447Y-80489506D01*
X149345806Y-80590521D01*
X149446821Y-80624193D01*
X149581508Y-80624193D01*
X149716195Y-80556849D01*
X149783539Y-80489506D01*
X149850882Y-80354819D01*
X149850882Y-80287475D01*
X149615180Y-80051773D01*
X149480493Y-80186460D01*
X149648852Y-79209979D02*
X149783539Y-79075292D01*
X149884554Y-79041620D01*
X150019241Y-79041620D01*
X150187600Y-79142635D01*
X150423302Y-79378338D01*
X150524317Y-79546696D01*
X150524317Y-79681384D01*
X150490646Y-79782399D01*
X150355959Y-79917086D01*
X150254943Y-79950758D01*
X150120256Y-79950758D01*
X149951897Y-79849742D01*
X149716195Y-79614040D01*
X149615180Y-79445681D01*
X149615180Y-79310994D01*
X149648852Y-79209979D01*
X151500798Y-78772246D02*
X150793691Y-78065139D01*
X151130409Y-78401857D02*
X151534470Y-77997796D01*
X151904859Y-78368185D02*
X151197752Y-77661078D01*
X151871187Y-77661078D02*
X152106890Y-77425376D01*
X152578294Y-77694750D02*
X152241577Y-78031468D01*
X151534470Y-77324361D01*
X151871187Y-76987643D01*
X153285401Y-76987643D02*
X152712981Y-76886628D01*
X152881340Y-77391704D02*
X152174233Y-76684598D01*
X152443607Y-76415224D01*
X152544622Y-76381552D01*
X152611966Y-76381552D01*
X152712981Y-76415224D01*
X152813996Y-76516239D01*
X152847668Y-76617254D01*
X152847668Y-76684598D01*
X152813996Y-76785613D01*
X152544622Y-77054987D01*
X153218057Y-76314208D02*
X153453760Y-76078506D01*
X153925164Y-76347880D02*
X153588447Y-76684598D01*
X152881340Y-75977491D01*
X153218057Y-75640773D01*
%TO.C,R3*%
X129373333Y-92782380D02*
X129040000Y-92306190D01*
X128801904Y-92782380D02*
X128801904Y-91782380D01*
X129182857Y-91782380D01*
X129278095Y-91830000D01*
X129325714Y-91877619D01*
X129373333Y-91972857D01*
X129373333Y-92115714D01*
X129325714Y-92210952D01*
X129278095Y-92258571D01*
X129182857Y-92306190D01*
X128801904Y-92306190D01*
X129706666Y-91782380D02*
X130325714Y-91782380D01*
X129992380Y-92163333D01*
X130135238Y-92163333D01*
X130230476Y-92210952D01*
X130278095Y-92258571D01*
X130325714Y-92353809D01*
X130325714Y-92591904D01*
X130278095Y-92687142D01*
X130230476Y-92734761D01*
X130135238Y-92782380D01*
X129849523Y-92782380D01*
X129754285Y-92734761D01*
X129706666Y-92687142D01*
%TO.C,L1*%
X125752606Y-82871325D02*
X125276415Y-82871325D01*
X125276415Y-81871325D01*
X126609749Y-82871325D02*
X126038320Y-82871325D01*
X126324034Y-82871325D02*
X126324034Y-81871325D01*
X126228796Y-82014183D01*
X126133558Y-82109421D01*
X126038320Y-82157040D01*
%TO.C,R4*%
X149693333Y-96082380D02*
X149360000Y-95606190D01*
X149121904Y-96082380D02*
X149121904Y-95082380D01*
X149502857Y-95082380D01*
X149598095Y-95130000D01*
X149645714Y-95177619D01*
X149693333Y-95272857D01*
X149693333Y-95415714D01*
X149645714Y-95510952D01*
X149598095Y-95558571D01*
X149502857Y-95606190D01*
X149121904Y-95606190D01*
X150550476Y-95415714D02*
X150550476Y-96082380D01*
X150312380Y-95034761D02*
X150074285Y-95749047D01*
X150693333Y-95749047D01*
%TO.C,PROG*%
X141297189Y-67622572D02*
X140590083Y-66915465D01*
X140859457Y-66646091D01*
X140960472Y-66612419D01*
X141027815Y-66612419D01*
X141128831Y-66646091D01*
X141229846Y-66747106D01*
X141263518Y-66848122D01*
X141263518Y-66915465D01*
X141229846Y-67016480D01*
X140960472Y-67285854D01*
X142408357Y-66511404D02*
X141835937Y-66410389D01*
X142004296Y-66915465D02*
X141297189Y-66208358D01*
X141566563Y-65938984D01*
X141667579Y-65905312D01*
X141734922Y-65905312D01*
X141835937Y-65938984D01*
X141936953Y-66039999D01*
X141970624Y-66141015D01*
X141970624Y-66208358D01*
X141936953Y-66309374D01*
X141667579Y-66578748D01*
X142138983Y-65366564D02*
X142273670Y-65231877D01*
X142374686Y-65198206D01*
X142509373Y-65198206D01*
X142677731Y-65299221D01*
X142913434Y-65534923D01*
X143014449Y-65703282D01*
X143014449Y-65837969D01*
X142980777Y-65938984D01*
X142846090Y-66073671D01*
X142745075Y-66107343D01*
X142610388Y-66107343D01*
X142442029Y-66006328D01*
X142206327Y-65770625D01*
X142105311Y-65602267D01*
X142105311Y-65467580D01*
X142138983Y-65366564D01*
X143149136Y-64423755D02*
X143048121Y-64457427D01*
X142947105Y-64558442D01*
X142879762Y-64693129D01*
X142879762Y-64827816D01*
X142913434Y-64928832D01*
X143014449Y-65097190D01*
X143115464Y-65198206D01*
X143283823Y-65299221D01*
X143384838Y-65332893D01*
X143519525Y-65332893D01*
X143654212Y-65265549D01*
X143721556Y-65198206D01*
X143788899Y-65063519D01*
X143788899Y-64996175D01*
X143553197Y-64760473D01*
X143418510Y-64895160D01*
%TO.C,R1*%
X141073333Y-77542380D02*
X140740000Y-77066190D01*
X140501904Y-77542380D02*
X140501904Y-76542380D01*
X140882857Y-76542380D01*
X140978095Y-76590000D01*
X141025714Y-76637619D01*
X141073333Y-76732857D01*
X141073333Y-76875714D01*
X141025714Y-76970952D01*
X140978095Y-77018571D01*
X140882857Y-77066190D01*
X140501904Y-77066190D01*
X142025714Y-77542380D02*
X141454285Y-77542380D01*
X141740000Y-77542380D02*
X141740000Y-76542380D01*
X141644761Y-76685238D01*
X141549523Y-76780476D01*
X141454285Y-76828095D01*
%TO.C,SW1*%
X138916666Y-99464761D02*
X139059523Y-99512380D01*
X139297619Y-99512380D01*
X139392857Y-99464761D01*
X139440476Y-99417142D01*
X139488095Y-99321904D01*
X139488095Y-99226666D01*
X139440476Y-99131428D01*
X139392857Y-99083809D01*
X139297619Y-99036190D01*
X139107142Y-98988571D01*
X139011904Y-98940952D01*
X138964285Y-98893333D01*
X138916666Y-98798095D01*
X138916666Y-98702857D01*
X138964285Y-98607619D01*
X139011904Y-98560000D01*
X139107142Y-98512380D01*
X139345238Y-98512380D01*
X139488095Y-98560000D01*
X139821428Y-98512380D02*
X140059523Y-99512380D01*
X140250000Y-98798095D01*
X140440476Y-99512380D01*
X140678571Y-98512380D01*
X141583333Y-99512380D02*
X141011904Y-99512380D01*
X141297619Y-99512380D02*
X141297619Y-98512380D01*
X141202380Y-98655238D01*
X141107142Y-98750476D01*
X141011904Y-98798095D01*
%TO.C,D2*%
X131341904Y-72462380D02*
X131341904Y-71462380D01*
X131580000Y-71462380D01*
X131722857Y-71510000D01*
X131818095Y-71605238D01*
X131865714Y-71700476D01*
X131913333Y-71890952D01*
X131913333Y-72033809D01*
X131865714Y-72224285D01*
X131818095Y-72319523D01*
X131722857Y-72414761D01*
X131580000Y-72462380D01*
X131341904Y-72462380D01*
X132294285Y-71557619D02*
X132341904Y-71510000D01*
X132437142Y-71462380D01*
X132675238Y-71462380D01*
X132770476Y-71510000D01*
X132818095Y-71557619D01*
X132865714Y-71652857D01*
X132865714Y-71748095D01*
X132818095Y-71890952D01*
X132246666Y-72462380D01*
X132865714Y-72462380D01*
X128984761Y-74762380D02*
X129556190Y-74762380D01*
X129270476Y-75762380D02*
X129270476Y-74762380D01*
X129889523Y-75762380D02*
X129889523Y-75095714D01*
X129889523Y-75286190D02*
X129937142Y-75190952D01*
X129984761Y-75143333D01*
X130080000Y-75095714D01*
X130175238Y-75095714D01*
X130937142Y-75762380D02*
X130937142Y-75238571D01*
X130889523Y-75143333D01*
X130794285Y-75095714D01*
X130603809Y-75095714D01*
X130508571Y-75143333D01*
X130937142Y-75714761D02*
X130841904Y-75762380D01*
X130603809Y-75762380D01*
X130508571Y-75714761D01*
X130460952Y-75619523D01*
X130460952Y-75524285D01*
X130508571Y-75429047D01*
X130603809Y-75381428D01*
X130841904Y-75381428D01*
X130937142Y-75333809D01*
X131413333Y-75095714D02*
X131413333Y-75762380D01*
X131413333Y-75190952D02*
X131460952Y-75143333D01*
X131556190Y-75095714D01*
X131699047Y-75095714D01*
X131794285Y-75143333D01*
X131841904Y-75238571D01*
X131841904Y-75762380D01*
X132270476Y-75714761D02*
X132365714Y-75762380D01*
X132556190Y-75762380D01*
X132651428Y-75714761D01*
X132699047Y-75619523D01*
X132699047Y-75571904D01*
X132651428Y-75476666D01*
X132556190Y-75429047D01*
X132413333Y-75429047D01*
X132318095Y-75381428D01*
X132270476Y-75286190D01*
X132270476Y-75238571D01*
X132318095Y-75143333D01*
X132413333Y-75095714D01*
X132556190Y-75095714D01*
X132651428Y-75143333D01*
X133127619Y-75762380D02*
X133127619Y-75095714D01*
X133127619Y-75190952D02*
X133175238Y-75143333D01*
X133270476Y-75095714D01*
X133413333Y-75095714D01*
X133508571Y-75143333D01*
X133556190Y-75238571D01*
X133556190Y-75762380D01*
X133556190Y-75238571D02*
X133603809Y-75143333D01*
X133699047Y-75095714D01*
X133841904Y-75095714D01*
X133937142Y-75143333D01*
X133984761Y-75238571D01*
X133984761Y-75762380D01*
X134460952Y-75762380D02*
X134460952Y-75095714D01*
X134460952Y-74762380D02*
X134413333Y-74810000D01*
X134460952Y-74857619D01*
X134508571Y-74810000D01*
X134460952Y-74762380D01*
X134460952Y-74857619D01*
X134794285Y-75095714D02*
X135175238Y-75095714D01*
X134937142Y-74762380D02*
X134937142Y-75619523D01*
X134984761Y-75714761D01*
X135080000Y-75762380D01*
X135175238Y-75762380D01*
%TO.C,J3*%
X129202380Y-68913333D02*
X129916666Y-68913333D01*
X130059523Y-68960952D01*
X130154761Y-69056190D01*
X130202380Y-69199047D01*
X130202380Y-69294285D01*
X129202380Y-68532380D02*
X129202380Y-67913333D01*
X129583333Y-68246666D01*
X129583333Y-68103809D01*
X129630952Y-68008571D01*
X129678571Y-67960952D01*
X129773809Y-67913333D01*
X130011904Y-67913333D01*
X130107142Y-67960952D01*
X130154761Y-68008571D01*
X130202380Y-68103809D01*
X130202380Y-68389523D01*
X130154761Y-68484761D01*
X130107142Y-68532380D01*
%TO.C,U1*%
X140715976Y-80433444D02*
X140715976Y-81242968D01*
X140763595Y-81338206D01*
X140811214Y-81385825D01*
X140906452Y-81433444D01*
X141096928Y-81433444D01*
X141192166Y-81385825D01*
X141239785Y-81338206D01*
X141287404Y-81242968D01*
X141287404Y-80433444D01*
X142287404Y-81433444D02*
X141715976Y-81433444D01*
X142001690Y-81433444D02*
X142001690Y-80433444D01*
X141906452Y-80576302D01*
X141811214Y-80671540D01*
X141715976Y-80719159D01*
%TO.C,D3*%
X128801904Y-97862380D02*
X128801904Y-96862380D01*
X129040000Y-96862380D01*
X129182857Y-96910000D01*
X129278095Y-97005238D01*
X129325714Y-97100476D01*
X129373333Y-97290952D01*
X129373333Y-97433809D01*
X129325714Y-97624285D01*
X129278095Y-97719523D01*
X129182857Y-97814761D01*
X129040000Y-97862380D01*
X128801904Y-97862380D01*
X129706666Y-96862380D02*
X130325714Y-96862380D01*
X129992380Y-97243333D01*
X130135238Y-97243333D01*
X130230476Y-97290952D01*
X130278095Y-97338571D01*
X130325714Y-97433809D01*
X130325714Y-97671904D01*
X130278095Y-97767142D01*
X130230476Y-97814761D01*
X130135238Y-97862380D01*
X129849523Y-97862380D01*
X129754285Y-97814761D01*
X129706666Y-97767142D01*
X127349523Y-101067142D02*
X127301904Y-101114761D01*
X127159047Y-101162380D01*
X127063809Y-101162380D01*
X126920952Y-101114761D01*
X126825714Y-101019523D01*
X126778095Y-100924285D01*
X126730476Y-100733809D01*
X126730476Y-100590952D01*
X126778095Y-100400476D01*
X126825714Y-100305238D01*
X126920952Y-100210000D01*
X127063809Y-100162380D01*
X127159047Y-100162380D01*
X127301904Y-100210000D01*
X127349523Y-100257619D01*
X127778095Y-101162380D02*
X127778095Y-100162380D01*
X128206666Y-101162380D02*
X128206666Y-100638571D01*
X128159047Y-100543333D01*
X128063809Y-100495714D01*
X127920952Y-100495714D01*
X127825714Y-100543333D01*
X127778095Y-100590952D01*
X129111428Y-101162380D02*
X129111428Y-100638571D01*
X129063809Y-100543333D01*
X128968571Y-100495714D01*
X128778095Y-100495714D01*
X128682857Y-100543333D01*
X129111428Y-101114761D02*
X129016190Y-101162380D01*
X128778095Y-101162380D01*
X128682857Y-101114761D01*
X128635238Y-101019523D01*
X128635238Y-100924285D01*
X128682857Y-100829047D01*
X128778095Y-100781428D01*
X129016190Y-100781428D01*
X129111428Y-100733809D01*
X129587619Y-100495714D02*
X129587619Y-101162380D01*
X129587619Y-100590952D02*
X129635238Y-100543333D01*
X129730476Y-100495714D01*
X129873333Y-100495714D01*
X129968571Y-100543333D01*
X130016190Y-100638571D01*
X130016190Y-101162380D01*
X130492380Y-100495714D02*
X130492380Y-101162380D01*
X130492380Y-100590952D02*
X130540000Y-100543333D01*
X130635238Y-100495714D01*
X130778095Y-100495714D01*
X130873333Y-100543333D01*
X130920952Y-100638571D01*
X130920952Y-101162380D01*
X131778095Y-101114761D02*
X131682857Y-101162380D01*
X131492380Y-101162380D01*
X131397142Y-101114761D01*
X131349523Y-101019523D01*
X131349523Y-100638571D01*
X131397142Y-100543333D01*
X131492380Y-100495714D01*
X131682857Y-100495714D01*
X131778095Y-100543333D01*
X131825714Y-100638571D01*
X131825714Y-100733809D01*
X131349523Y-100829047D01*
X132397142Y-101162380D02*
X132301904Y-101114761D01*
X132254285Y-101019523D01*
X132254285Y-100162380D01*
%TO.C,D1*%
X131341904Y-77542380D02*
X131341904Y-76542380D01*
X131580000Y-76542380D01*
X131722857Y-76590000D01*
X131818095Y-76685238D01*
X131865714Y-76780476D01*
X131913333Y-76970952D01*
X131913333Y-77113809D01*
X131865714Y-77304285D01*
X131818095Y-77399523D01*
X131722857Y-77494761D01*
X131580000Y-77542380D01*
X131341904Y-77542380D01*
X132865714Y-77542380D02*
X132294285Y-77542380D01*
X132580000Y-77542380D02*
X132580000Y-76542380D01*
X132484761Y-76685238D01*
X132389523Y-76780476D01*
X132294285Y-76828095D01*
X130103809Y-80842380D02*
X130103809Y-79842380D01*
X130484761Y-79842380D01*
X130580000Y-79890000D01*
X130627619Y-79937619D01*
X130675238Y-80032857D01*
X130675238Y-80175714D01*
X130627619Y-80270952D01*
X130580000Y-80318571D01*
X130484761Y-80366190D01*
X130103809Y-80366190D01*
X131246666Y-80842380D02*
X131151428Y-80794761D01*
X131103809Y-80747142D01*
X131056190Y-80651904D01*
X131056190Y-80366190D01*
X131103809Y-80270952D01*
X131151428Y-80223333D01*
X131246666Y-80175714D01*
X131389523Y-80175714D01*
X131484761Y-80223333D01*
X131532380Y-80270952D01*
X131580000Y-80366190D01*
X131580000Y-80651904D01*
X131532380Y-80747142D01*
X131484761Y-80794761D01*
X131389523Y-80842380D01*
X131246666Y-80842380D01*
X131913333Y-80175714D02*
X132103809Y-80842380D01*
X132294285Y-80366190D01*
X132484761Y-80842380D01*
X132675238Y-80175714D01*
X133437142Y-80794761D02*
X133341904Y-80842380D01*
X133151428Y-80842380D01*
X133056190Y-80794761D01*
X133008571Y-80699523D01*
X133008571Y-80318571D01*
X133056190Y-80223333D01*
X133151428Y-80175714D01*
X133341904Y-80175714D01*
X133437142Y-80223333D01*
X133484761Y-80318571D01*
X133484761Y-80413809D01*
X133008571Y-80509047D01*
X133913333Y-80842380D02*
X133913333Y-80175714D01*
X133913333Y-80366190D02*
X133960952Y-80270952D01*
X134008571Y-80223333D01*
X134103809Y-80175714D01*
X134199047Y-80175714D01*
%TO.C,AE1*%
X120753333Y-74036666D02*
X121229523Y-74036666D01*
X120658095Y-74322380D02*
X120991428Y-73322380D01*
X121324761Y-74322380D01*
X121658095Y-73798571D02*
X121991428Y-73798571D01*
X122134285Y-74322380D02*
X121658095Y-74322380D01*
X121658095Y-73322380D01*
X122134285Y-73322380D01*
X123086666Y-74322380D02*
X122515238Y-74322380D01*
X122800952Y-74322380D02*
X122800952Y-73322380D01*
X122705714Y-73465238D01*
X122610476Y-73560476D01*
X122515238Y-73608095D01*
%TO.C,R2*%
X141073333Y-72462380D02*
X140740000Y-71986190D01*
X140501904Y-72462380D02*
X140501904Y-71462380D01*
X140882857Y-71462380D01*
X140978095Y-71510000D01*
X141025714Y-71557619D01*
X141073333Y-71652857D01*
X141073333Y-71795714D01*
X141025714Y-71890952D01*
X140978095Y-71938571D01*
X140882857Y-71986190D01*
X140501904Y-71986190D01*
X141454285Y-71557619D02*
X141501904Y-71510000D01*
X141597142Y-71462380D01*
X141835238Y-71462380D01*
X141930476Y-71510000D01*
X141978095Y-71557619D01*
X142025714Y-71652857D01*
X142025714Y-71748095D01*
X141978095Y-71890952D01*
X141406666Y-72462380D01*
X142025714Y-72462380D01*
D13*
%TO.C,R3*%
X129312936Y-94715000D02*
X129767064Y-94715000D01*
X129312936Y-93245000D02*
X129767064Y-93245000D01*
%TO.C,R4*%
X150087064Y-93245000D02*
X149632936Y-93245000D01*
X150087064Y-94715000D02*
X149632936Y-94715000D01*
%TO.C,PROG*%
X144625924Y-64741897D02*
X140948969Y-68418852D01*
X152750581Y-72866554D02*
X153691033Y-73807006D01*
X150014078Y-77483961D02*
X140948969Y-68418852D01*
X151852555Y-71968528D02*
X150014078Y-73807006D01*
X150014078Y-73807006D02*
X151852555Y-75645484D01*
X151852555Y-71968528D02*
X144625924Y-64741897D01*
X153691033Y-73807006D02*
X152750581Y-74747458D01*
X151852555Y-75645484D02*
X150014078Y-77483961D01*
%TO.C,R1*%
X141012936Y-78005000D02*
X141467064Y-78005000D01*
X141012936Y-79475000D02*
X141467064Y-79475000D01*
D14*
%TO.C,SW1*%
X145200000Y-98860000D02*
X145200000Y-98860000D01*
X142750000Y-97860000D02*
X142750000Y-97260000D01*
X142750000Y-100910000D02*
X136650000Y-100910000D01*
X136650000Y-100910000D02*
X136650000Y-100260000D01*
X142750000Y-100260000D02*
X142750000Y-100910000D01*
X136650000Y-97860000D02*
X136650000Y-97860000D01*
X142750000Y-97260000D02*
X136650000Y-97210000D01*
X136650000Y-97210000D02*
X136650000Y-97860000D01*
X145300000Y-98860000D02*
X145300000Y-98860000D01*
X145300000Y-98860000D02*
G75*
G03*
X145200000Y-98860000I-50000J0D01*
G01*
X145200000Y-98860000D02*
G75*
G03*
X145300000Y-98860000I50000J0D01*
G01*
D13*
%TO.C,D2*%
X130220000Y-74620000D02*
X133080000Y-74620000D01*
X133080000Y-72700000D02*
X130220000Y-72700000D01*
X130220000Y-72700000D02*
X130220000Y-74620000D01*
%TO.C,J3*%
X130750000Y-69910000D02*
X130750000Y-68580000D01*
X132080000Y-69910000D02*
X130750000Y-69910000D01*
X135950000Y-69910000D02*
X135950000Y-67250000D01*
X133350000Y-69910000D02*
X135950000Y-69910000D01*
X133350000Y-67250000D02*
X135950000Y-67250000D01*
X133350000Y-69910000D02*
X133350000Y-67250000D01*
%TO.C,U1*%
X139700000Y-90795000D02*
X137750000Y-90795000D01*
X139700000Y-90795000D02*
X141650000Y-90795000D01*
X139700000Y-81925000D02*
X141650000Y-81925000D01*
X139700000Y-81925000D02*
X136250000Y-81925000D01*
%TO.C,D3*%
X127680000Y-100020000D02*
X130540000Y-100020000D01*
X127680000Y-98100000D02*
X127680000Y-100020000D01*
X130540000Y-98100000D02*
X127680000Y-98100000D01*
%TO.C,D1*%
X130220000Y-79700000D02*
X133080000Y-79700000D01*
X130220000Y-77780000D02*
X130220000Y-79700000D01*
X133080000Y-77780000D02*
X130220000Y-77780000D01*
%TO.C,AE1*%
X120590000Y-77530000D02*
X123250000Y-77530000D01*
X120590000Y-76200000D02*
X120590000Y-74870000D01*
X123250000Y-77470000D02*
X123250000Y-77530000D01*
X120590000Y-74870000D02*
X121920000Y-74870000D01*
X120590000Y-77470000D02*
X123250000Y-77470000D01*
X120590000Y-77470000D02*
X120590000Y-77530000D01*
%TO.C,G0*%
G36*
X120539344Y-95741662D02*
G01*
X120541219Y-95647270D01*
X120543871Y-95567749D01*
X120547301Y-95506480D01*
X120550903Y-95470785D01*
X120568236Y-95365920D01*
X120588998Y-95264219D01*
X120611921Y-95170756D01*
X120635736Y-95090606D01*
X120659175Y-95028844D01*
X120663821Y-95018908D01*
X120715250Y-94935777D01*
X120785355Y-94854091D01*
X120868471Y-94778681D01*
X120958932Y-94714376D01*
X121051071Y-94666008D01*
X121098100Y-94648655D01*
X121164245Y-94631514D01*
X121241781Y-94616418D01*
X121320479Y-94605002D01*
X121390112Y-94598899D01*
X121413063Y-94598313D01*
X121445151Y-94596081D01*
X121461157Y-94586034D01*
X121469096Y-94564520D01*
X121523871Y-94350523D01*
X121581458Y-94159789D01*
X121642308Y-93991113D01*
X121706876Y-93843295D01*
X121775616Y-93715132D01*
X121810615Y-93659659D01*
X121903207Y-93540740D01*
X122017026Y-93428208D01*
X122149160Y-93323826D01*
X122296698Y-93229358D01*
X122456730Y-93146567D01*
X122626343Y-93077216D01*
X122802627Y-93023070D01*
X122897634Y-93001167D01*
X123053306Y-92976513D01*
X123218392Y-92963097D01*
X123385391Y-92960976D01*
X123546800Y-92970206D01*
X123695116Y-92990846D01*
X123716009Y-92994979D01*
X123819576Y-93021077D01*
X123929333Y-93056796D01*
X124034265Y-93098257D01*
X124106542Y-93132537D01*
X124206101Y-93189755D01*
X124293969Y-93252353D01*
X124372004Y-93322895D01*
X124442063Y-93403944D01*
X124506005Y-93498063D01*
X124565687Y-93607817D01*
X124622968Y-93735767D01*
X124679705Y-93884478D01*
X124705653Y-93959148D01*
X124727308Y-94022107D01*
X124744852Y-94068041D01*
X124761956Y-94103240D01*
X124782289Y-94133990D01*
X124809520Y-94166581D01*
X124847319Y-94207301D01*
X124855534Y-94215985D01*
X124928954Y-94296337D01*
X124987074Y-94366979D01*
X125033884Y-94433434D01*
X125073370Y-94501226D01*
X125099404Y-94553747D01*
X125150827Y-94677439D01*
X125191195Y-94802823D01*
X125218987Y-94923991D01*
X125232682Y-95035034D01*
X125233869Y-95076095D01*
X125225961Y-95162918D01*
X125204913Y-95255819D01*
X125173845Y-95342443D01*
X125158787Y-95373554D01*
X125123785Y-95429171D01*
X125076901Y-95489911D01*
X125023901Y-95549372D01*
X124970550Y-95601151D01*
X124922612Y-95638844D01*
X124916353Y-95642822D01*
X124886759Y-95663411D01*
X124868525Y-95680908D01*
X124865763Y-95686764D01*
X124867242Y-95703826D01*
X124871499Y-95739483D01*
X124877821Y-95788003D01*
X124883308Y-95828080D01*
X124896695Y-95936797D01*
X124907380Y-96053063D01*
X124915465Y-96179589D01*
X124921051Y-96319089D01*
X124924240Y-96474273D01*
X124925133Y-96647855D01*
X124923833Y-96842546D01*
X124923188Y-96893996D01*
X124921005Y-97039170D01*
X124918557Y-97163417D01*
X124915614Y-97270389D01*
X124911945Y-97363737D01*
X124907319Y-97447110D01*
X124901506Y-97524160D01*
X124894276Y-97598537D01*
X124885398Y-97673892D01*
X124874642Y-97753875D01*
X124864477Y-97824002D01*
X124834408Y-97999497D01*
X124799073Y-98156804D01*
X124758949Y-98294190D01*
X124714513Y-98409919D01*
X124689292Y-98462040D01*
X124637510Y-98534593D01*
X124564675Y-98598191D01*
X124472941Y-98651966D01*
X124364465Y-98695052D01*
X124241399Y-98726584D01*
X124105898Y-98745694D01*
X123969290Y-98751558D01*
X123823984Y-98742973D01*
X123696608Y-98717692D01*
X123587009Y-98675664D01*
X123495037Y-98616841D01*
X123458180Y-98583701D01*
X123397676Y-98508393D01*
X123345783Y-98413924D01*
X123304150Y-98304704D01*
X123274429Y-98185143D01*
X123258269Y-98059650D01*
X123257500Y-98047597D01*
X123249515Y-97910020D01*
X123172713Y-97906362D01*
X123095911Y-97902703D01*
X123095911Y-98012907D01*
X123094267Y-98103986D01*
X123089681Y-98205168D01*
X123082667Y-98310149D01*
X123073744Y-98412626D01*
X123063426Y-98506295D01*
X123052232Y-98584853D01*
X123046448Y-98616590D01*
X123023257Y-98706659D01*
X122992052Y-98791438D01*
X122955348Y-98865504D01*
X122915663Y-98923434D01*
X122893362Y-98946553D01*
X122833782Y-98985051D01*
X122751457Y-99016203D01*
X122647160Y-99039804D01*
X122521664Y-99055649D01*
X122469206Y-99059554D01*
X122376082Y-99064898D01*
X122301663Y-99067974D01*
X122240180Y-99068765D01*
X122185864Y-99067254D01*
X122132946Y-99063422D01*
X122085252Y-99058386D01*
X121969948Y-99036116D01*
X121865575Y-98998309D01*
X121775787Y-98946703D01*
X121704233Y-98883037D01*
X121695523Y-98872828D01*
X121671563Y-98839427D01*
X121643827Y-98794691D01*
X121623093Y-98757271D01*
X121610607Y-98731365D01*
X121599715Y-98703621D01*
X121589966Y-98671381D01*
X121580914Y-98631989D01*
X121572108Y-98582791D01*
X121563101Y-98521128D01*
X121553443Y-98444346D01*
X121542688Y-98349788D01*
X121530384Y-98234798D01*
X121523195Y-98165744D01*
X121514783Y-98084802D01*
X121506578Y-98006523D01*
X121499158Y-97936365D01*
X121493100Y-97879784D01*
X121489002Y-97842435D01*
X121479994Y-97762560D01*
X121324067Y-97760163D01*
X121239554Y-97757688D01*
X121172939Y-97752246D01*
X121117588Y-97742404D01*
X121066871Y-97726728D01*
X121014153Y-97703785D01*
X120977475Y-97685240D01*
X120879215Y-97620596D01*
X120791232Y-97536408D01*
X120716701Y-97436661D01*
X120658797Y-97325340D01*
X120632740Y-97252594D01*
X120618335Y-97193715D01*
X120603784Y-97114941D01*
X120589691Y-97020944D01*
X120576657Y-96916393D01*
X120565286Y-96805961D01*
X120556180Y-96694318D01*
X120551919Y-96626228D01*
X120547693Y-96534644D01*
X120544220Y-96430870D01*
X120541502Y-96318289D01*
X120539542Y-96200283D01*
X120538344Y-96080235D01*
X120537909Y-95961527D01*
X120538032Y-95919309D01*
X120835279Y-95919309D01*
X120836392Y-96103908D01*
X120840073Y-96282652D01*
X120846158Y-96453244D01*
X120854481Y-96613386D01*
X120864877Y-96760779D01*
X120877181Y-96893127D01*
X120891228Y-97008132D01*
X120906853Y-97103495D01*
X120923889Y-97176919D01*
X120926283Y-97185008D01*
X120960542Y-97261119D01*
X121012791Y-97332414D01*
X121077433Y-97392956D01*
X121148875Y-97436809D01*
X121172786Y-97446535D01*
X121201126Y-97452331D01*
X121246410Y-97457026D01*
X121301005Y-97459942D01*
X121330019Y-97460526D01*
X121450387Y-97461496D01*
X121443586Y-97421559D01*
X121438987Y-97386183D01*
X121433405Y-97329683D01*
X121427070Y-97255484D01*
X121420211Y-97167009D01*
X121413057Y-97067680D01*
X121405838Y-96960922D01*
X121398784Y-96850159D01*
X121392124Y-96738812D01*
X121386087Y-96630307D01*
X121380903Y-96528066D01*
X121376801Y-96435513D01*
X121375842Y-96410843D01*
X121370907Y-96258824D01*
X121367314Y-96104728D01*
X121365061Y-95952108D01*
X121364571Y-95872917D01*
X121678521Y-95872917D01*
X121682921Y-96140115D01*
X121683163Y-96149530D01*
X121690021Y-96367939D01*
X121699266Y-96583625D01*
X121711161Y-96799797D01*
X121725967Y-97019665D01*
X121743945Y-97246439D01*
X121765356Y-97483329D01*
X121790461Y-97733544D01*
X121819523Y-98000295D01*
X121852802Y-98286791D01*
X121866286Y-98398846D01*
X121879257Y-98493576D01*
X121893615Y-98567078D01*
X121911283Y-98622697D01*
X121934183Y-98663775D01*
X121964240Y-98693656D01*
X122003376Y-98715683D01*
X122053514Y-98733200D01*
X122059604Y-98734944D01*
X122096823Y-98741189D01*
X122153126Y-98745386D01*
X122223118Y-98747629D01*
X122301399Y-98748010D01*
X122382571Y-98746625D01*
X122461238Y-98743565D01*
X122532001Y-98738926D01*
X122589463Y-98732801D01*
X122628225Y-98725284D01*
X122628954Y-98725065D01*
X122669295Y-98708272D01*
X122694588Y-98684036D01*
X122705223Y-98665479D01*
X122722596Y-98621606D01*
X122737036Y-98565666D01*
X122748784Y-98495505D01*
X122758083Y-98408969D01*
X122765178Y-98303902D01*
X122770311Y-98178152D01*
X122773122Y-98063625D01*
X122775211Y-97973504D01*
X122777845Y-97890288D01*
X122780858Y-97817488D01*
X122784082Y-97758612D01*
X122787351Y-97717171D01*
X122790498Y-97696675D01*
X122790601Y-97696386D01*
X122801645Y-97667078D01*
X123080878Y-97675665D01*
X123241661Y-97678503D01*
X123385806Y-97675978D01*
X123520527Y-97667351D01*
X123653036Y-97651887D01*
X123790548Y-97628848D01*
X123940275Y-97597496D01*
X124014465Y-97580264D01*
X124053672Y-97572286D01*
X124081348Y-97569241D01*
X124091267Y-97571587D01*
X124083116Y-97584191D01*
X124061499Y-97609012D01*
X124030670Y-97641237D01*
X124022376Y-97649535D01*
X123955119Y-97705533D01*
X123869932Y-97759961D01*
X123773392Y-97809426D01*
X123672079Y-97850536D01*
X123578283Y-97878549D01*
X123515585Y-97893591D01*
X123521768Y-97938670D01*
X123541552Y-98062629D01*
X123564533Y-98164902D01*
X123592010Y-98248308D01*
X123625282Y-98315666D01*
X123665648Y-98369795D01*
X123714407Y-98413511D01*
X123751951Y-98438108D01*
X123816921Y-98465839D01*
X123895219Y-98483147D01*
X123982431Y-98490625D01*
X124074144Y-98488867D01*
X124165944Y-98478467D01*
X124253419Y-98460018D01*
X124332156Y-98434114D01*
X124397741Y-98401351D01*
X124445762Y-98362320D01*
X124460537Y-98342753D01*
X124480195Y-98302887D01*
X124502677Y-98244389D01*
X124526247Y-98172778D01*
X124549170Y-98093573D01*
X124569710Y-98012293D01*
X124581624Y-97957694D01*
X124603978Y-97837280D01*
X124622626Y-97714472D01*
X124637743Y-97586425D01*
X124649504Y-97450293D01*
X124658085Y-97303229D01*
X124663661Y-97142388D01*
X124666408Y-96964922D01*
X124666499Y-96767985D01*
X124664918Y-96604760D01*
X124662380Y-96443270D01*
X124659314Y-96304342D01*
X124655615Y-96185963D01*
X124651178Y-96086122D01*
X124645898Y-96002807D01*
X124639668Y-95934007D01*
X124632385Y-95877710D01*
X124624721Y-95835496D01*
X124615748Y-95811420D01*
X124601201Y-95807874D01*
X124596994Y-95809382D01*
X124577093Y-95816067D01*
X124539440Y-95827362D01*
X124490020Y-95841505D01*
X124450719Y-95852406D01*
X124231024Y-95900781D01*
X124008319Y-95927024D01*
X123785552Y-95931207D01*
X123565673Y-95913407D01*
X123351630Y-95873698D01*
X123168635Y-95820061D01*
X123003932Y-95753171D01*
X122846290Y-95670492D01*
X122700039Y-95574835D01*
X122569511Y-95469017D01*
X122465070Y-95362853D01*
X122390870Y-95265627D01*
X122337240Y-95166456D01*
X122302358Y-95060324D01*
X122284400Y-94942217D01*
X122281187Y-94862512D01*
X122598570Y-94862512D01*
X122599881Y-94926379D01*
X122604134Y-94973090D01*
X122612422Y-95009996D01*
X122625531Y-95043774D01*
X122661897Y-95103898D01*
X122717466Y-95170026D01*
X122788652Y-95238966D01*
X122871865Y-95307527D01*
X122963517Y-95372519D01*
X123060020Y-95430750D01*
X123061739Y-95431695D01*
X123207546Y-95499454D01*
X123369083Y-95552614D01*
X123541800Y-95590460D01*
X123721148Y-95612274D01*
X123902576Y-95617340D01*
X124081535Y-95604942D01*
X124124872Y-95599102D01*
X124296048Y-95567273D01*
X124448444Y-95525584D01*
X124580991Y-95474456D01*
X124692615Y-95414312D01*
X124782246Y-95345573D01*
X124791597Y-95336645D01*
X124842657Y-95282744D01*
X124876796Y-95235020D01*
X124897599Y-95186102D01*
X124908647Y-95128617D01*
X124911964Y-95089040D01*
X124907416Y-94977466D01*
X124881461Y-94856697D01*
X124834558Y-94728757D01*
X124825669Y-94708908D01*
X124791283Y-94644947D01*
X124745245Y-94574660D01*
X124692815Y-94504975D01*
X124639255Y-94442820D01*
X124589826Y-94395123D01*
X124583360Y-94389854D01*
X124518381Y-94346832D01*
X124439037Y-94309957D01*
X124343582Y-94278808D01*
X124230271Y-94252963D01*
X124097357Y-94232001D01*
X123943097Y-94215500D01*
X123824133Y-94206549D01*
X123632258Y-94200905D01*
X123457005Y-94210256D01*
X123295202Y-94235029D01*
X123143679Y-94275650D01*
X123049229Y-94310742D01*
X122921303Y-94371945D01*
X122815518Y-94441009D01*
X122730331Y-94519240D01*
X122664199Y-94607943D01*
X122636295Y-94659754D01*
X122618454Y-94699380D01*
X122607270Y-94732693D01*
X122601239Y-94767779D01*
X122598856Y-94812721D01*
X122598570Y-94862512D01*
X122281187Y-94862512D01*
X122280939Y-94856368D01*
X122283690Y-94766713D01*
X122294303Y-94689204D01*
X122314932Y-94615234D01*
X122347731Y-94536193D01*
X122374759Y-94481573D01*
X122423784Y-94402947D01*
X122489450Y-94321067D01*
X122565737Y-94242187D01*
X122646622Y-94172561D01*
X122722274Y-94120662D01*
X122896522Y-94032272D01*
X123083452Y-93964234D01*
X123281334Y-93916993D01*
X123488439Y-93890994D01*
X123636598Y-93885672D01*
X123721684Y-93887207D01*
X123817096Y-93891565D01*
X123918064Y-93898285D01*
X124019814Y-93906907D01*
X124117575Y-93916969D01*
X124206575Y-93928012D01*
X124282040Y-93939574D01*
X124339200Y-93951196D01*
X124352562Y-93954769D01*
X124364024Y-93956434D01*
X124366954Y-93949109D01*
X124361055Y-93927972D01*
X124348932Y-93895687D01*
X124292577Y-93764150D01*
X124234705Y-93656979D01*
X124175217Y-93574002D01*
X124139359Y-93536361D01*
X124038178Y-93457856D01*
X123917973Y-93391029D01*
X123782109Y-93337423D01*
X123633951Y-93298581D01*
X123610904Y-93294128D01*
X123535348Y-93284343D01*
X123442579Y-93278731D01*
X123339579Y-93277162D01*
X123233332Y-93279505D01*
X123130822Y-93285629D01*
X123039030Y-93295404D01*
X122976857Y-93306008D01*
X122815142Y-93348244D01*
X122658637Y-93403948D01*
X122511170Y-93471168D01*
X122376570Y-93547955D01*
X122258664Y-93632356D01*
X122162665Y-93720938D01*
X122098591Y-93797683D01*
X122040164Y-93885804D01*
X121985871Y-93988285D01*
X121934199Y-94108114D01*
X121883634Y-94248276D01*
X121862689Y-94312891D01*
X121816186Y-94473785D01*
X121776854Y-94639701D01*
X121744462Y-94813001D01*
X121718779Y-94996047D01*
X121699574Y-95191200D01*
X121686617Y-95400822D01*
X121679676Y-95627273D01*
X121678521Y-95872917D01*
X121364571Y-95872917D01*
X121364147Y-95804520D01*
X121364568Y-95665519D01*
X121366324Y-95538658D01*
X121369412Y-95427492D01*
X121373830Y-95335576D01*
X121376472Y-95298748D01*
X121382485Y-95224575D01*
X121388788Y-95144840D01*
X121394521Y-95070504D01*
X121397898Y-95025332D01*
X121406666Y-94905521D01*
X121360988Y-94905521D01*
X121295123Y-94911256D01*
X121222979Y-94926463D01*
X121157456Y-94948150D01*
X121136822Y-94957546D01*
X121093124Y-94985398D01*
X121044005Y-95025462D01*
X120996196Y-95071324D01*
X120956428Y-95116571D01*
X120932830Y-95151941D01*
X120901941Y-95230140D01*
X120876902Y-95332139D01*
X120857724Y-95457862D01*
X120844415Y-95607237D01*
X120836984Y-95780189D01*
X120835279Y-95919309D01*
X120538032Y-95919309D01*
X120538241Y-95847542D01*
X120539344Y-95741662D01*
G37*
%TO.C,R2*%
X141012936Y-72925000D02*
X141467064Y-72925000D01*
X141012936Y-74395000D02*
X141467064Y-74395000D01*
%TD*%
M02*
