%TF.GenerationSoftware,KiCad,Pcbnew,6.0.9-8da3e8f707~117~ubuntu22.04.1*%
%TF.CreationDate,2022-11-29T09:47:06-05:00*%
%TF.ProjectId,RFTransmitterV3,52465472-616e-4736-9d69-747465725633,rev?*%
%TF.SameCoordinates,Original*%
%TF.FileFunction,Copper,L2,Inr*%
%TF.FilePolarity,Positive*%
%FSLAX46Y46*%
G04 Gerber Fmt 4.6, Leading zero omitted, Abs format (unit mm)*
G04 Created by KiCad (PCBNEW 6.0.9-8da3e8f707~117~ubuntu22.04.1) date 2022-11-29 09:47:06*
%MOMM*%
%LPD*%
G01*
G04 APERTURE LIST*
G04 Aperture macros list*
%AMHorizOval*
0 Thick line with rounded ends*
0 $1 width*
0 $2 $3 position (X,Y) of the first rounded end (center of the circle)*
0 $4 $5 position (X,Y) of the second rounded end (center of the circle)*
0 Add line between two ends*
20,1,$1,$2,$3,$4,$5,0*
0 Add two circle primitives to create the rounded ends*
1,1,$1,$2,$3*
1,1,$1,$4,$5*%
%AMRotRect*
0 Rectangle, with rotation*
0 The origin of the aperture is its center*
0 $1 length*
0 $2 width*
0 $3 Rotation angle, in degrees counterclockwise*
0 Add horizontal line*
21,1,$1,$2,0,0,$3*%
G04 Aperture macros list end*
%TA.AperFunction,ComponentPad*%
%ADD10RotRect,1.700000X1.700000X225.000000*%
%TD*%
%TA.AperFunction,ComponentPad*%
%ADD11HorizOval,1.700000X0.000000X0.000000X0.000000X0.000000X0*%
%TD*%
%TA.AperFunction,ComponentPad*%
%ADD12R,1.700000X1.700000*%
%TD*%
%TA.AperFunction,ComponentPad*%
%ADD13O,1.700000X1.700000*%
%TD*%
%TA.AperFunction,ComponentPad*%
%ADD14R,3.000000X3.000000*%
%TD*%
%TA.AperFunction,ComponentPad*%
%ADD15C,3.000000*%
%TD*%
%TA.AperFunction,ViaPad*%
%ADD16C,0.800000*%
%TD*%
G04 APERTURE END LIST*
D10*
%TO.N,unconnected-(J1-Pad1)*%
%TO.C,PROG*%
X151810129Y-73807006D03*
D11*
%TO.N,GND*%
X150014078Y-75603057D03*
%TO.N,unconnected-(J1-Pad3)*%
X150014078Y-72010955D03*
%TO.N,/C2DAT*%
X148218027Y-73807006D03*
%TO.N,unconnected-(J1-Pad5)*%
X148218027Y-70214904D03*
%TO.N,unconnected-(J1-Pad6)*%
X146421975Y-72010955D03*
%TO.N,/C2CLK*%
X146421975Y-68418852D03*
%TO.N,unconnected-(J1-Pad8)*%
X144625924Y-70214904D03*
%TO.N,unconnected-(J1-Pad9)*%
X144625924Y-66622801D03*
%TO.N,unconnected-(J1-Pad10)*%
X142829873Y-68418852D03*
%TD*%
D12*
%TO.N,GND*%
%TO.C,J3*%
X132080000Y-68580000D03*
D13*
%TO.N,/VPP*%
X134620000Y-68580000D03*
%TD*%
D12*
%TO.N,Net-(AE1-Pad1)*%
%TO.C,AE1*%
X121920000Y-76200000D03*
%TD*%
D14*
%TO.N,+3V3*%
%TO.C,BT1*%
X149860000Y-86360000D03*
D15*
%TO.N,GND*%
X129370000Y-86360000D03*
%TD*%
D16*
%TO.N,+3V3*%
X134620000Y-93980000D03*
%TO.N,GND*%
X152400000Y-91440000D03*
X134620000Y-83820000D03*
%TO.N,/C2CLK*%
X140391683Y-87628048D03*
%TO.N,/C2DAT*%
X144780000Y-88900000D03*
%TO.N,GPIO3*%
X142240000Y-76200000D03*
X140361215Y-84695664D03*
%TO.N,GPIO8*%
X132080000Y-91440000D03*
X139306844Y-82890723D03*
%TD*%
%TA.AperFunction,Conductor*%
%TO.N,GND*%
G36*
X154373621Y-64028502D02*
G01*
X154420114Y-64082158D01*
X154431500Y-64134500D01*
X154431500Y-106045500D01*
X154411498Y-106113621D01*
X154357842Y-106160114D01*
X154305500Y-106171500D01*
X120014500Y-106171500D01*
X119946379Y-106151498D01*
X119899886Y-106097842D01*
X119888500Y-106045500D01*
X119888500Y-101732703D01*
X147750743Y-101732703D01*
X147788268Y-102017734D01*
X147864129Y-102295036D01*
X147976923Y-102559476D01*
X148124561Y-102806161D01*
X148304313Y-103030528D01*
X148512851Y-103228423D01*
X148746317Y-103396186D01*
X148750112Y-103398195D01*
X148750113Y-103398196D01*
X148771869Y-103409715D01*
X149000392Y-103530712D01*
X149270373Y-103629511D01*
X149551264Y-103690755D01*
X149579841Y-103693004D01*
X149774282Y-103708307D01*
X149774291Y-103708307D01*
X149776739Y-103708500D01*
X149932271Y-103708500D01*
X149934407Y-103708354D01*
X149934418Y-103708354D01*
X150142548Y-103694165D01*
X150142554Y-103694164D01*
X150146825Y-103693873D01*
X150151020Y-103693004D01*
X150151022Y-103693004D01*
X150287584Y-103664723D01*
X150428342Y-103635574D01*
X150699343Y-103539607D01*
X150954812Y-103407750D01*
X150958313Y-103405289D01*
X150958317Y-103405287D01*
X151072417Y-103325096D01*
X151190023Y-103242441D01*
X151400622Y-103046740D01*
X151582713Y-102824268D01*
X151732927Y-102579142D01*
X151848483Y-102315898D01*
X151927244Y-102039406D01*
X151967751Y-101754784D01*
X151967845Y-101736951D01*
X151969235Y-101471583D01*
X151969235Y-101471576D01*
X151969257Y-101467297D01*
X151931732Y-101182266D01*
X151855871Y-100904964D01*
X151743077Y-100640524D01*
X151595439Y-100393839D01*
X151415687Y-100169472D01*
X151207149Y-99971577D01*
X150973683Y-99803814D01*
X150951843Y-99792250D01*
X150928654Y-99779972D01*
X150719608Y-99669288D01*
X150449627Y-99570489D01*
X150168736Y-99509245D01*
X150137685Y-99506801D01*
X149945718Y-99491693D01*
X149945709Y-99491693D01*
X149943261Y-99491500D01*
X149787729Y-99491500D01*
X149785593Y-99491646D01*
X149785582Y-99491646D01*
X149577452Y-99505835D01*
X149577446Y-99505836D01*
X149573175Y-99506127D01*
X149568980Y-99506996D01*
X149568978Y-99506996D01*
X149432416Y-99535277D01*
X149291658Y-99564426D01*
X149020657Y-99660393D01*
X148765188Y-99792250D01*
X148761687Y-99794711D01*
X148761683Y-99794713D01*
X148751594Y-99801804D01*
X148529977Y-99957559D01*
X148319378Y-100153260D01*
X148137287Y-100375732D01*
X147987073Y-100620858D01*
X147871517Y-100884102D01*
X147792756Y-101160594D01*
X147752249Y-101445216D01*
X147752227Y-101449505D01*
X147752226Y-101449512D01*
X147750765Y-101728417D01*
X147750743Y-101732703D01*
X119888500Y-101732703D01*
X119888500Y-93980000D01*
X133706496Y-93980000D01*
X133726458Y-94169928D01*
X133785473Y-94351556D01*
X133880960Y-94516944D01*
X134008747Y-94658866D01*
X134163248Y-94771118D01*
X134169276Y-94773802D01*
X134169278Y-94773803D01*
X134331681Y-94846109D01*
X134337712Y-94848794D01*
X134431113Y-94868647D01*
X134518056Y-94887128D01*
X134518061Y-94887128D01*
X134524513Y-94888500D01*
X134715487Y-94888500D01*
X134721939Y-94887128D01*
X134721944Y-94887128D01*
X134808888Y-94868647D01*
X134902288Y-94848794D01*
X134908319Y-94846109D01*
X135070722Y-94773803D01*
X135070724Y-94773802D01*
X135076752Y-94771118D01*
X135231253Y-94658866D01*
X135359040Y-94516944D01*
X135454527Y-94351556D01*
X135513542Y-94169928D01*
X135533504Y-93980000D01*
X135513542Y-93790072D01*
X135454527Y-93608444D01*
X135359040Y-93443056D01*
X135231253Y-93301134D01*
X135076752Y-93188882D01*
X135070724Y-93186198D01*
X135070722Y-93186197D01*
X134908319Y-93113891D01*
X134908318Y-93113891D01*
X134902288Y-93111206D01*
X134808887Y-93091353D01*
X134721944Y-93072872D01*
X134721939Y-93072872D01*
X134715487Y-93071500D01*
X134524513Y-93071500D01*
X134518061Y-93072872D01*
X134518056Y-93072872D01*
X134431113Y-93091353D01*
X134337712Y-93111206D01*
X134331682Y-93113891D01*
X134331681Y-93113891D01*
X134169278Y-93186197D01*
X134169276Y-93186198D01*
X134163248Y-93188882D01*
X134008747Y-93301134D01*
X133880960Y-93443056D01*
X133785473Y-93608444D01*
X133726458Y-93790072D01*
X133706496Y-93980000D01*
X119888500Y-93980000D01*
X119888500Y-91440000D01*
X131166496Y-91440000D01*
X131186458Y-91629928D01*
X131245473Y-91811556D01*
X131340960Y-91976944D01*
X131468747Y-92118866D01*
X131623248Y-92231118D01*
X131629276Y-92233802D01*
X131629278Y-92233803D01*
X131791681Y-92306109D01*
X131797712Y-92308794D01*
X131891112Y-92328647D01*
X131978056Y-92347128D01*
X131978061Y-92347128D01*
X131984513Y-92348500D01*
X132175487Y-92348500D01*
X132181939Y-92347128D01*
X132181944Y-92347128D01*
X132268888Y-92328647D01*
X132362288Y-92308794D01*
X132368319Y-92306109D01*
X132530722Y-92233803D01*
X132530724Y-92233802D01*
X132536752Y-92231118D01*
X132691253Y-92118866D01*
X132819040Y-91976944D01*
X132914527Y-91811556D01*
X132973542Y-91629928D01*
X132993504Y-91440000D01*
X132973542Y-91250072D01*
X132914527Y-91068444D01*
X132819040Y-90903056D01*
X132691253Y-90761134D01*
X132536752Y-90648882D01*
X132530724Y-90646198D01*
X132530722Y-90646197D01*
X132368319Y-90573891D01*
X132368318Y-90573891D01*
X132362288Y-90571206D01*
X132268887Y-90551353D01*
X132181944Y-90532872D01*
X132181939Y-90532872D01*
X132175487Y-90531500D01*
X131984513Y-90531500D01*
X131978061Y-90532872D01*
X131978056Y-90532872D01*
X131891113Y-90551353D01*
X131797712Y-90571206D01*
X131791682Y-90573891D01*
X131791681Y-90573891D01*
X131629278Y-90646197D01*
X131629276Y-90646198D01*
X131623248Y-90648882D01*
X131468747Y-90761134D01*
X131340960Y-90903056D01*
X131245473Y-91068444D01*
X131186458Y-91250072D01*
X131166496Y-91440000D01*
X119888500Y-91440000D01*
X119888500Y-88900000D01*
X143866496Y-88900000D01*
X143886458Y-89089928D01*
X143945473Y-89271556D01*
X144040960Y-89436944D01*
X144168747Y-89578866D01*
X144323248Y-89691118D01*
X144329276Y-89693802D01*
X144329278Y-89693803D01*
X144491681Y-89766109D01*
X144497712Y-89768794D01*
X144591112Y-89788647D01*
X144678056Y-89807128D01*
X144678061Y-89807128D01*
X144684513Y-89808500D01*
X144875487Y-89808500D01*
X144881939Y-89807128D01*
X144881944Y-89807128D01*
X144968887Y-89788647D01*
X145062288Y-89768794D01*
X145068319Y-89766109D01*
X145230722Y-89693803D01*
X145230724Y-89693802D01*
X145236752Y-89691118D01*
X145391253Y-89578866D01*
X145519040Y-89436944D01*
X145614527Y-89271556D01*
X145673542Y-89089928D01*
X145693504Y-88900000D01*
X145673542Y-88710072D01*
X145614527Y-88528444D01*
X145519040Y-88363056D01*
X145466973Y-88305229D01*
X145395675Y-88226045D01*
X145395674Y-88226044D01*
X145391253Y-88221134D01*
X145292157Y-88149136D01*
X145242094Y-88112763D01*
X145242093Y-88112762D01*
X145236752Y-88108882D01*
X145230724Y-88106198D01*
X145230722Y-88106197D01*
X145068319Y-88033891D01*
X145068318Y-88033891D01*
X145062288Y-88031206D01*
X144940538Y-88005327D01*
X144881944Y-87992872D01*
X144881939Y-87992872D01*
X144875487Y-87991500D01*
X144684513Y-87991500D01*
X144678061Y-87992872D01*
X144678056Y-87992872D01*
X144619462Y-88005327D01*
X144497712Y-88031206D01*
X144491682Y-88033891D01*
X144491681Y-88033891D01*
X144329278Y-88106197D01*
X144329276Y-88106198D01*
X144323248Y-88108882D01*
X144317907Y-88112762D01*
X144317906Y-88112763D01*
X144267843Y-88149136D01*
X144168747Y-88221134D01*
X144164326Y-88226044D01*
X144164325Y-88226045D01*
X144093028Y-88305229D01*
X144040960Y-88363056D01*
X143945473Y-88528444D01*
X143886458Y-88710072D01*
X143866496Y-88900000D01*
X119888500Y-88900000D01*
X119888500Y-87949654D01*
X128145618Y-87949654D01*
X128152673Y-87959627D01*
X128183679Y-87985551D01*
X128190598Y-87990579D01*
X128415272Y-88131515D01*
X128422807Y-88135556D01*
X128664520Y-88244694D01*
X128672551Y-88247680D01*
X128926832Y-88323002D01*
X128935184Y-88324869D01*
X129197340Y-88364984D01*
X129205874Y-88365700D01*
X129471045Y-88369867D01*
X129479596Y-88369418D01*
X129742883Y-88337557D01*
X129751284Y-88335955D01*
X130007824Y-88268653D01*
X130015926Y-88265926D01*
X130260949Y-88164434D01*
X130268617Y-88160628D01*
X130497598Y-88026822D01*
X130504679Y-88022009D01*
X130584655Y-87959301D01*
X130593125Y-87947442D01*
X130586608Y-87935818D01*
X130278838Y-87628048D01*
X139478179Y-87628048D01*
X139498141Y-87817976D01*
X139557156Y-87999604D01*
X139560459Y-88005326D01*
X139560460Y-88005327D01*
X139572870Y-88026822D01*
X139652643Y-88164992D01*
X139657061Y-88169899D01*
X139657062Y-88169900D01*
X139743524Y-88265926D01*
X139780430Y-88306914D01*
X139934931Y-88419166D01*
X139940959Y-88421850D01*
X139940961Y-88421851D01*
X140103364Y-88494157D01*
X140109395Y-88496842D01*
X140202796Y-88516695D01*
X140289739Y-88535176D01*
X140289744Y-88535176D01*
X140296196Y-88536548D01*
X140487170Y-88536548D01*
X140493622Y-88535176D01*
X140493627Y-88535176D01*
X140580570Y-88516695D01*
X140673971Y-88496842D01*
X140680002Y-88494157D01*
X140842405Y-88421851D01*
X140842407Y-88421850D01*
X140848435Y-88419166D01*
X141002936Y-88306914D01*
X141039842Y-88265926D01*
X141126304Y-88169900D01*
X141126305Y-88169899D01*
X141130723Y-88164992D01*
X141210496Y-88026822D01*
X141222906Y-88005327D01*
X141222907Y-88005326D01*
X141226210Y-87999604D01*
X141255931Y-87908134D01*
X147851500Y-87908134D01*
X147858255Y-87970316D01*
X147909385Y-88106705D01*
X147996739Y-88223261D01*
X148113295Y-88310615D01*
X148249684Y-88361745D01*
X148311866Y-88368500D01*
X151408134Y-88368500D01*
X151470316Y-88361745D01*
X151606705Y-88310615D01*
X151723261Y-88223261D01*
X151810615Y-88106705D01*
X151861745Y-87970316D01*
X151868500Y-87908134D01*
X151868500Y-84811866D01*
X151861745Y-84749684D01*
X151810615Y-84613295D01*
X151723261Y-84496739D01*
X151606705Y-84409385D01*
X151470316Y-84358255D01*
X151408134Y-84351500D01*
X148311866Y-84351500D01*
X148249684Y-84358255D01*
X148113295Y-84409385D01*
X147996739Y-84496739D01*
X147909385Y-84613295D01*
X147858255Y-84749684D01*
X147851500Y-84811866D01*
X147851500Y-87908134D01*
X141255931Y-87908134D01*
X141285225Y-87817976D01*
X141305187Y-87628048D01*
X141285225Y-87438120D01*
X141226210Y-87256492D01*
X141130723Y-87091104D01*
X141002936Y-86949182D01*
X140848435Y-86836930D01*
X140842407Y-86834246D01*
X140842405Y-86834245D01*
X140680002Y-86761939D01*
X140680001Y-86761939D01*
X140673971Y-86759254D01*
X140580571Y-86739401D01*
X140493627Y-86720920D01*
X140493622Y-86720920D01*
X140487170Y-86719548D01*
X140296196Y-86719548D01*
X140289744Y-86720920D01*
X140289739Y-86720920D01*
X140202795Y-86739401D01*
X140109395Y-86759254D01*
X140103365Y-86761939D01*
X140103364Y-86761939D01*
X139940961Y-86834245D01*
X139940959Y-86834246D01*
X139934931Y-86836930D01*
X139780430Y-86949182D01*
X139652643Y-87091104D01*
X139557156Y-87256492D01*
X139498141Y-87438120D01*
X139478179Y-87628048D01*
X130278838Y-87628048D01*
X129382812Y-86732022D01*
X129368868Y-86724408D01*
X129367035Y-86724539D01*
X129360420Y-86728790D01*
X128152910Y-87936300D01*
X128145618Y-87949654D01*
X119888500Y-87949654D01*
X119888500Y-86343204D01*
X127357665Y-86343204D01*
X127372932Y-86607969D01*
X127374005Y-86616470D01*
X127425065Y-86876722D01*
X127427276Y-86884974D01*
X127513184Y-87135894D01*
X127516499Y-87143779D01*
X127635664Y-87380713D01*
X127640020Y-87388079D01*
X127769347Y-87576250D01*
X127779601Y-87584594D01*
X127793342Y-87577448D01*
X128997978Y-86372812D01*
X129004356Y-86361132D01*
X129734408Y-86361132D01*
X129734539Y-86362965D01*
X129738790Y-86369580D01*
X130945730Y-87576520D01*
X130957939Y-87583187D01*
X130969439Y-87574497D01*
X131066831Y-87441913D01*
X131071418Y-87434685D01*
X131197962Y-87201621D01*
X131201530Y-87193827D01*
X131295271Y-86945750D01*
X131297748Y-86937544D01*
X131356954Y-86679038D01*
X131358294Y-86670577D01*
X131382031Y-86404616D01*
X131382277Y-86399677D01*
X131382666Y-86362485D01*
X131382523Y-86357519D01*
X131364362Y-86091123D01*
X131363201Y-86082649D01*
X131309419Y-85822944D01*
X131307120Y-85814709D01*
X131218588Y-85564705D01*
X131215191Y-85556854D01*
X131093550Y-85321178D01*
X131089122Y-85313866D01*
X130970031Y-85144417D01*
X130959509Y-85136037D01*
X130946121Y-85143089D01*
X129742022Y-86347188D01*
X129734408Y-86361132D01*
X129004356Y-86361132D01*
X129005592Y-86358868D01*
X129005461Y-86357035D01*
X129001210Y-86350420D01*
X127793814Y-85143024D01*
X127781804Y-85136466D01*
X127770064Y-85145434D01*
X127661935Y-85295911D01*
X127657418Y-85303196D01*
X127533325Y-85537567D01*
X127529839Y-85545395D01*
X127438700Y-85794446D01*
X127436311Y-85802670D01*
X127379812Y-86061795D01*
X127378563Y-86070250D01*
X127357754Y-86334653D01*
X127357665Y-86343204D01*
X119888500Y-86343204D01*
X119888500Y-84772500D01*
X128146584Y-84772500D01*
X128152980Y-84783770D01*
X129357188Y-85987978D01*
X129371132Y-85995592D01*
X129372965Y-85995461D01*
X129379580Y-85991210D01*
X130586604Y-84784186D01*
X130593795Y-84771017D01*
X130586473Y-84760780D01*
X130539233Y-84722115D01*
X130532261Y-84717160D01*
X130497183Y-84695664D01*
X139447711Y-84695664D01*
X139448401Y-84702229D01*
X139454513Y-84760377D01*
X139467673Y-84885592D01*
X139526688Y-85067220D01*
X139622175Y-85232608D01*
X139749962Y-85374530D01*
X139904463Y-85486782D01*
X139910491Y-85489466D01*
X139910493Y-85489467D01*
X140061848Y-85556854D01*
X140078927Y-85564458D01*
X140172327Y-85584311D01*
X140259271Y-85602792D01*
X140259276Y-85602792D01*
X140265728Y-85604164D01*
X140456702Y-85604164D01*
X140463154Y-85602792D01*
X140463159Y-85602792D01*
X140550102Y-85584311D01*
X140643503Y-85564458D01*
X140660582Y-85556854D01*
X140811937Y-85489467D01*
X140811939Y-85489466D01*
X140817967Y-85486782D01*
X140972468Y-85374530D01*
X141100255Y-85232608D01*
X141195742Y-85067220D01*
X141254757Y-84885592D01*
X141267918Y-84760377D01*
X141274029Y-84702229D01*
X141274719Y-84695664D01*
X141274029Y-84689099D01*
X141255447Y-84512299D01*
X141255447Y-84512297D01*
X141254757Y-84505736D01*
X141195742Y-84324108D01*
X141100255Y-84158720D01*
X140972468Y-84016798D01*
X140817967Y-83904546D01*
X140811939Y-83901862D01*
X140811937Y-83901861D01*
X140649534Y-83829555D01*
X140649533Y-83829555D01*
X140643503Y-83826870D01*
X140550103Y-83807017D01*
X140463159Y-83788536D01*
X140463154Y-83788536D01*
X140456702Y-83787164D01*
X140265728Y-83787164D01*
X140259276Y-83788536D01*
X140259271Y-83788536D01*
X140172327Y-83807017D01*
X140078927Y-83826870D01*
X140072897Y-83829555D01*
X140072896Y-83829555D01*
X139910493Y-83901861D01*
X139910491Y-83901862D01*
X139904463Y-83904546D01*
X139749962Y-84016798D01*
X139622175Y-84158720D01*
X139526688Y-84324108D01*
X139467673Y-84505736D01*
X139466983Y-84512297D01*
X139466983Y-84512299D01*
X139448401Y-84689099D01*
X139447711Y-84695664D01*
X130497183Y-84695664D01*
X130306122Y-84578582D01*
X130298552Y-84574624D01*
X130055704Y-84468022D01*
X130047644Y-84465120D01*
X129792592Y-84392467D01*
X129784214Y-84390685D01*
X129521656Y-84353318D01*
X129513111Y-84352691D01*
X129247908Y-84351302D01*
X129239374Y-84351839D01*
X128976433Y-84386456D01*
X128968035Y-84388149D01*
X128712238Y-84458127D01*
X128704143Y-84460946D01*
X128460199Y-84564997D01*
X128452577Y-84568881D01*
X128225013Y-84705075D01*
X128217981Y-84709962D01*
X128155053Y-84760377D01*
X128146584Y-84772500D01*
X119888500Y-84772500D01*
X119888500Y-82890723D01*
X138393340Y-82890723D01*
X138413302Y-83080651D01*
X138472317Y-83262279D01*
X138567804Y-83427667D01*
X138695591Y-83569589D01*
X138850092Y-83681841D01*
X138856120Y-83684525D01*
X138856122Y-83684526D01*
X139018525Y-83756832D01*
X139024556Y-83759517D01*
X139117957Y-83779370D01*
X139204900Y-83797851D01*
X139204905Y-83797851D01*
X139211357Y-83799223D01*
X139402331Y-83799223D01*
X139408783Y-83797851D01*
X139408788Y-83797851D01*
X139495731Y-83779370D01*
X139589132Y-83759517D01*
X139595163Y-83756832D01*
X139757566Y-83684526D01*
X139757568Y-83684525D01*
X139763596Y-83681841D01*
X139918097Y-83569589D01*
X140045884Y-83427667D01*
X140141371Y-83262279D01*
X140200386Y-83080651D01*
X140220348Y-82890723D01*
X140200386Y-82700795D01*
X140141371Y-82519167D01*
X140045884Y-82353779D01*
X139918097Y-82211857D01*
X139763596Y-82099605D01*
X139757568Y-82096921D01*
X139757566Y-82096920D01*
X139595163Y-82024614D01*
X139595162Y-82024614D01*
X139589132Y-82021929D01*
X139495731Y-82002076D01*
X139408788Y-81983595D01*
X139408783Y-81983595D01*
X139402331Y-81982223D01*
X139211357Y-81982223D01*
X139204905Y-81983595D01*
X139204900Y-81983595D01*
X139117957Y-82002076D01*
X139024556Y-82021929D01*
X139018526Y-82024614D01*
X139018525Y-82024614D01*
X138856122Y-82096920D01*
X138856120Y-82096921D01*
X138850092Y-82099605D01*
X138695591Y-82211857D01*
X138567804Y-82353779D01*
X138472317Y-82519167D01*
X138413302Y-82700795D01*
X138393340Y-82890723D01*
X119888500Y-82890723D01*
X119888500Y-77098134D01*
X120561500Y-77098134D01*
X120568255Y-77160316D01*
X120619385Y-77296705D01*
X120706739Y-77413261D01*
X120823295Y-77500615D01*
X120959684Y-77551745D01*
X121021866Y-77558500D01*
X122818134Y-77558500D01*
X122880316Y-77551745D01*
X123016705Y-77500615D01*
X123133261Y-77413261D01*
X123220615Y-77296705D01*
X123271745Y-77160316D01*
X123278500Y-77098134D01*
X123278500Y-76200000D01*
X141326496Y-76200000D01*
X141327186Y-76206565D01*
X141342716Y-76354321D01*
X141346458Y-76389928D01*
X141405473Y-76571556D01*
X141500960Y-76736944D01*
X141505378Y-76741851D01*
X141505379Y-76741852D01*
X141624325Y-76873955D01*
X141628747Y-76878866D01*
X141783248Y-76991118D01*
X141789276Y-76993802D01*
X141789278Y-76993803D01*
X141951681Y-77066109D01*
X141957712Y-77068794D01*
X142051113Y-77088647D01*
X142138056Y-77107128D01*
X142138061Y-77107128D01*
X142144513Y-77108500D01*
X142335487Y-77108500D01*
X142341939Y-77107128D01*
X142341944Y-77107128D01*
X142428887Y-77088647D01*
X142522288Y-77068794D01*
X142528319Y-77066109D01*
X142690722Y-76993803D01*
X142690724Y-76993802D01*
X142696752Y-76991118D01*
X142851253Y-76878866D01*
X142855675Y-76873955D01*
X142974621Y-76741852D01*
X142974622Y-76741851D01*
X142979040Y-76736944D01*
X142984256Y-76727910D01*
X149254055Y-76727910D01*
X149259336Y-76734964D01*
X149420834Y-76829336D01*
X149430120Y-76833786D01*
X149629079Y-76909760D01*
X149638977Y-76912636D01*
X149847673Y-76955095D01*
X149857901Y-76956314D01*
X150070728Y-76964119D01*
X150081014Y-76963652D01*
X150292263Y-76936591D01*
X150302340Y-76934449D01*
X150506333Y-76873248D01*
X150515920Y-76869490D01*
X150707176Y-76775795D01*
X150716022Y-76770522D01*
X150763325Y-76736780D01*
X150771726Y-76726080D01*
X150764738Y-76712927D01*
X150026890Y-75975079D01*
X150012946Y-75967465D01*
X150011113Y-75967596D01*
X150004498Y-75971847D01*
X149260815Y-76715530D01*
X149254055Y-76727910D01*
X142984256Y-76727910D01*
X143074527Y-76571556D01*
X143133542Y-76389928D01*
X143137285Y-76354321D01*
X143152814Y-76206565D01*
X143153504Y-76200000D01*
X143133542Y-76010072D01*
X143074527Y-75828444D01*
X142979040Y-75663056D01*
X142851253Y-75521134D01*
X142742170Y-75441880D01*
X142702094Y-75412763D01*
X142702093Y-75412762D01*
X142696752Y-75408882D01*
X142690724Y-75406198D01*
X142690722Y-75406197D01*
X142528319Y-75333891D01*
X142528318Y-75333891D01*
X142522288Y-75331206D01*
X142400331Y-75305283D01*
X142341944Y-75292872D01*
X142341939Y-75292872D01*
X142335487Y-75291500D01*
X142144513Y-75291500D01*
X142138061Y-75292872D01*
X142138056Y-75292872D01*
X142079669Y-75305283D01*
X141957712Y-75331206D01*
X141951682Y-75333891D01*
X141951681Y-75333891D01*
X141789278Y-75406197D01*
X141789276Y-75406198D01*
X141783248Y-75408882D01*
X141777907Y-75412762D01*
X141777906Y-75412763D01*
X141737830Y-75441880D01*
X141628747Y-75521134D01*
X141500960Y-75663056D01*
X141405473Y-75828444D01*
X141346458Y-76010072D01*
X141326496Y-76200000D01*
X123278500Y-76200000D01*
X123278500Y-75301866D01*
X123271745Y-75239684D01*
X123220615Y-75103295D01*
X123133261Y-74986739D01*
X123016705Y-74899385D01*
X122880316Y-74848255D01*
X122818134Y-74841500D01*
X121021866Y-74841500D01*
X120959684Y-74848255D01*
X120823295Y-74899385D01*
X120706739Y-74986739D01*
X120619385Y-75103295D01*
X120568255Y-75239684D01*
X120561500Y-75301866D01*
X120561500Y-77098134D01*
X119888500Y-77098134D01*
X119888500Y-68077703D01*
X122350743Y-68077703D01*
X122351302Y-68081947D01*
X122351302Y-68081951D01*
X122361372Y-68158440D01*
X122388268Y-68362734D01*
X122464129Y-68640036D01*
X122465813Y-68643984D01*
X122573723Y-68896973D01*
X122576923Y-68904476D01*
X122617066Y-68971550D01*
X122680180Y-69077005D01*
X122724561Y-69151161D01*
X122904313Y-69375528D01*
X122924475Y-69394661D01*
X123097602Y-69558952D01*
X123112851Y-69573423D01*
X123346317Y-69741186D01*
X123350112Y-69743195D01*
X123350113Y-69743196D01*
X123368397Y-69752877D01*
X123600392Y-69875712D01*
X123699234Y-69911883D01*
X123815677Y-69954495D01*
X123870373Y-69974511D01*
X124151264Y-70035755D01*
X124179841Y-70038004D01*
X124374282Y-70053307D01*
X124374291Y-70053307D01*
X124376739Y-70053500D01*
X124532271Y-70053500D01*
X124534407Y-70053354D01*
X124534418Y-70053354D01*
X124742548Y-70039165D01*
X124742554Y-70039164D01*
X124746825Y-70038873D01*
X124751020Y-70038004D01*
X124751022Y-70038004D01*
X124946966Y-69997426D01*
X125028342Y-69980574D01*
X125299343Y-69884607D01*
X125502115Y-69779949D01*
X125551005Y-69754715D01*
X125551006Y-69754715D01*
X125554812Y-69752750D01*
X125558313Y-69750289D01*
X125558317Y-69750287D01*
X125687897Y-69659216D01*
X125790023Y-69587441D01*
X125911380Y-69474669D01*
X130722001Y-69474669D01*
X130722371Y-69481490D01*
X130727895Y-69532352D01*
X130731521Y-69547604D01*
X130776676Y-69668054D01*
X130785214Y-69683649D01*
X130861715Y-69785724D01*
X130874276Y-69798285D01*
X130976351Y-69874786D01*
X130991946Y-69883324D01*
X131112394Y-69928478D01*
X131127649Y-69932105D01*
X131178514Y-69937631D01*
X131185328Y-69938000D01*
X131807885Y-69938000D01*
X131823124Y-69933525D01*
X131824329Y-69932135D01*
X131826000Y-69924452D01*
X131826000Y-69919884D01*
X132334000Y-69919884D01*
X132338475Y-69935123D01*
X132339865Y-69936328D01*
X132347548Y-69937999D01*
X132974669Y-69937999D01*
X132981490Y-69937629D01*
X133032352Y-69932105D01*
X133047604Y-69928479D01*
X133168054Y-69883324D01*
X133183649Y-69874786D01*
X133285724Y-69798285D01*
X133298285Y-69785724D01*
X133374786Y-69683649D01*
X133383324Y-69668054D01*
X133424225Y-69558952D01*
X133466867Y-69502188D01*
X133533428Y-69477488D01*
X133602777Y-69492696D01*
X133637444Y-69520684D01*
X133662865Y-69550031D01*
X133662869Y-69550035D01*
X133666250Y-69553938D01*
X133838126Y-69696632D01*
X134031000Y-69809338D01*
X134239692Y-69889030D01*
X134244760Y-69890061D01*
X134244763Y-69890062D01*
X134352017Y-69911883D01*
X134458597Y-69933567D01*
X134463772Y-69933757D01*
X134463774Y-69933757D01*
X134676673Y-69941564D01*
X134676677Y-69941564D01*
X134681837Y-69941753D01*
X134686957Y-69941097D01*
X134686959Y-69941097D01*
X134898288Y-69914025D01*
X134898289Y-69914025D01*
X134903416Y-69913368D01*
X134908366Y-69911883D01*
X135112429Y-69850661D01*
X135112434Y-69850659D01*
X135117384Y-69849174D01*
X135317994Y-69750896D01*
X135499860Y-69621173D01*
X135531239Y-69589904D01*
X135600701Y-69520684D01*
X135658096Y-69463489D01*
X135723704Y-69372186D01*
X135785435Y-69286277D01*
X135788453Y-69282077D01*
X135815258Y-69227842D01*
X135885136Y-69086453D01*
X135885137Y-69086451D01*
X135887430Y-69081811D01*
X135921513Y-68969632D01*
X135950865Y-68873023D01*
X135950865Y-68873021D01*
X135952370Y-68868069D01*
X135981529Y-68646590D01*
X135983156Y-68580000D01*
X135967169Y-68385547D01*
X141467124Y-68385547D01*
X141467421Y-68390700D01*
X141467421Y-68390703D01*
X141478142Y-68576646D01*
X141479983Y-68608567D01*
X141481120Y-68613613D01*
X141481121Y-68613619D01*
X141500992Y-68701791D01*
X141529095Y-68826491D01*
X141613139Y-69033468D01*
X141641349Y-69079502D01*
X141724230Y-69214752D01*
X141729860Y-69223940D01*
X141876123Y-69392790D01*
X142047999Y-69535484D01*
X142240873Y-69648190D01*
X142245698Y-69650032D01*
X142245699Y-69650033D01*
X142292891Y-69668054D01*
X142449565Y-69727882D01*
X142454633Y-69728913D01*
X142454636Y-69728914D01*
X142559688Y-69750287D01*
X142668470Y-69772419D01*
X142673645Y-69772609D01*
X142673647Y-69772609D01*
X142886546Y-69780416D01*
X142886550Y-69780416D01*
X142891710Y-69780605D01*
X142896830Y-69779949D01*
X142896832Y-69779949D01*
X143108161Y-69752877D01*
X143108162Y-69752877D01*
X143113289Y-69752220D01*
X143118240Y-69750735D01*
X143118243Y-69750734D01*
X143146742Y-69742184D01*
X143217737Y-69741768D01*
X143277688Y-69779800D01*
X143307559Y-69844207D01*
X143304366Y-69896541D01*
X143286913Y-69959474D01*
X143263175Y-70181599D01*
X143263472Y-70186752D01*
X143263472Y-70186755D01*
X143268935Y-70281494D01*
X143276034Y-70404619D01*
X143277171Y-70409665D01*
X143277172Y-70409671D01*
X143297043Y-70497843D01*
X143325146Y-70622543D01*
X143409190Y-70829520D01*
X143411889Y-70833924D01*
X143522243Y-71014006D01*
X143525911Y-71019992D01*
X143672174Y-71188842D01*
X143844050Y-71331536D01*
X144036924Y-71444242D01*
X144041749Y-71446084D01*
X144041750Y-71446085D01*
X144114536Y-71473879D01*
X144245616Y-71523934D01*
X144250684Y-71524965D01*
X144250687Y-71524966D01*
X144313867Y-71537820D01*
X144464521Y-71568471D01*
X144469696Y-71568661D01*
X144469698Y-71568661D01*
X144682597Y-71576468D01*
X144682601Y-71576468D01*
X144687761Y-71576657D01*
X144692881Y-71576001D01*
X144692883Y-71576001D01*
X144904212Y-71548929D01*
X144904213Y-71548929D01*
X144909340Y-71548272D01*
X144914291Y-71546787D01*
X144914294Y-71546786D01*
X144942793Y-71538236D01*
X145013788Y-71537820D01*
X145073739Y-71575852D01*
X145103610Y-71640259D01*
X145100417Y-71692592D01*
X145082964Y-71755525D01*
X145059226Y-71977650D01*
X145059523Y-71982803D01*
X145059523Y-71982806D01*
X145070460Y-72172490D01*
X145072085Y-72200670D01*
X145073222Y-72205716D01*
X145073223Y-72205722D01*
X145093094Y-72293894D01*
X145121197Y-72418594D01*
X145205241Y-72625571D01*
X145321962Y-72816043D01*
X145468225Y-72984893D01*
X145640101Y-73127587D01*
X145832975Y-73240293D01*
X145837800Y-73242135D01*
X145837801Y-73242136D01*
X145910587Y-73269930D01*
X146041667Y-73319985D01*
X146046735Y-73321016D01*
X146046738Y-73321017D01*
X146109918Y-73333871D01*
X146260572Y-73364522D01*
X146265747Y-73364712D01*
X146265749Y-73364712D01*
X146478648Y-73372519D01*
X146478652Y-73372519D01*
X146483812Y-73372708D01*
X146488932Y-73372052D01*
X146488934Y-73372052D01*
X146700263Y-73344980D01*
X146700264Y-73344980D01*
X146705391Y-73344323D01*
X146710343Y-73342837D01*
X146710349Y-73342836D01*
X146738846Y-73334287D01*
X146809841Y-73333871D01*
X146869791Y-73371904D01*
X146899662Y-73436311D01*
X146896469Y-73488643D01*
X146879016Y-73551576D01*
X146855278Y-73773701D01*
X146855575Y-73778854D01*
X146855575Y-73778857D01*
X146865512Y-73951192D01*
X146868137Y-73996721D01*
X146869274Y-74001767D01*
X146869275Y-74001773D01*
X146884020Y-74067200D01*
X146917249Y-74214645D01*
X147001293Y-74421622D01*
X147118014Y-74612094D01*
X147264277Y-74780944D01*
X147436153Y-74923638D01*
X147629027Y-75036344D01*
X147837719Y-75116036D01*
X147842787Y-75117067D01*
X147842790Y-75117068D01*
X147950044Y-75138889D01*
X148056624Y-75160573D01*
X148061799Y-75160763D01*
X148061801Y-75160763D01*
X148274700Y-75168570D01*
X148274704Y-75168570D01*
X148279864Y-75168759D01*
X148284984Y-75168103D01*
X148284986Y-75168103D01*
X148496315Y-75141031D01*
X148496316Y-75141031D01*
X148501443Y-75140374D01*
X148535461Y-75130168D01*
X148606457Y-75129751D01*
X148666407Y-75167784D01*
X148696279Y-75232190D01*
X148693086Y-75284527D01*
X148676941Y-75342742D01*
X148675011Y-75352857D01*
X148652380Y-75564631D01*
X148652128Y-75574920D01*
X148664387Y-75787534D01*
X148665823Y-75797754D01*
X148712643Y-76005503D01*
X148715723Y-76015332D01*
X148795848Y-76212660D01*
X148800491Y-76221851D01*
X148880538Y-76352477D01*
X148890994Y-76361937D01*
X148899772Y-76358153D01*
X149924983Y-75332942D01*
X149987295Y-75298916D01*
X150058110Y-75303981D01*
X150103173Y-75332942D01*
X151124552Y-76354321D01*
X151136562Y-76360880D01*
X151148301Y-76351912D01*
X151179082Y-76309076D01*
X151184393Y-76300237D01*
X151278748Y-76109324D01*
X151282547Y-76099729D01*
X151344454Y-75895972D01*
X151346633Y-75885891D01*
X151374668Y-75672944D01*
X151375187Y-75666269D01*
X151376650Y-75606421D01*
X151376456Y-75599705D01*
X151374464Y-75575474D01*
X151388816Y-75505943D01*
X151438482Y-75455210D01*
X151507691Y-75439382D01*
X151552190Y-75450448D01*
X151657771Y-75498452D01*
X151657774Y-75498453D01*
X151665943Y-75502167D01*
X151674826Y-75503439D01*
X151674829Y-75503440D01*
X151801240Y-75521543D01*
X151810129Y-75522816D01*
X151819018Y-75521543D01*
X151945429Y-75503440D01*
X151945432Y-75503439D01*
X151954315Y-75502167D01*
X152086911Y-75441880D01*
X152093064Y-75436933D01*
X152093067Y-75436931D01*
X152132995Y-75404827D01*
X152135657Y-75402687D01*
X153405810Y-74132534D01*
X153419266Y-74115798D01*
X153440054Y-74089944D01*
X153440056Y-74089941D01*
X153445003Y-74083788D01*
X153472566Y-74023165D01*
X153501576Y-73959361D01*
X153501576Y-73959360D01*
X153505290Y-73951192D01*
X153515928Y-73876914D01*
X153524666Y-73815895D01*
X153525939Y-73807006D01*
X153505290Y-73662820D01*
X153501576Y-73654650D01*
X153448271Y-73537412D01*
X153445003Y-73530224D01*
X153440056Y-73524071D01*
X153440054Y-73524068D01*
X153411573Y-73488646D01*
X153405810Y-73481478D01*
X152135657Y-72211325D01*
X152115977Y-72195502D01*
X152093067Y-72177081D01*
X152093064Y-72177079D01*
X152086911Y-72172132D01*
X151954315Y-72111845D01*
X151945432Y-72110573D01*
X151945429Y-72110572D01*
X151819018Y-72092469D01*
X151810129Y-72091196D01*
X151801240Y-72092469D01*
X151674829Y-72110572D01*
X151674826Y-72110573D01*
X151665943Y-72111845D01*
X151657774Y-72115559D01*
X151657771Y-72115560D01*
X151554521Y-72162504D01*
X151484231Y-72172490D01*
X151419699Y-72142889D01*
X151381416Y-72083099D01*
X151376409Y-72044726D01*
X151377152Y-72014321D01*
X151377152Y-72014316D01*
X151377234Y-72010955D01*
X151358930Y-71788316D01*
X151304509Y-71571657D01*
X151215432Y-71366795D01*
X151100309Y-71188842D01*
X151096900Y-71183572D01*
X151096898Y-71183569D01*
X151094092Y-71179232D01*
X150943748Y-71014006D01*
X150939697Y-71010807D01*
X150939693Y-71010803D01*
X150772492Y-70878755D01*
X150772488Y-70878753D01*
X150768437Y-70875553D01*
X150572867Y-70767593D01*
X150567998Y-70765869D01*
X150567994Y-70765867D01*
X150367165Y-70694750D01*
X150367161Y-70694749D01*
X150362290Y-70693024D01*
X150357197Y-70692117D01*
X150357194Y-70692116D01*
X150147451Y-70654755D01*
X150147445Y-70654754D01*
X150142362Y-70653849D01*
X150068530Y-70652947D01*
X149924159Y-70651183D01*
X149924157Y-70651183D01*
X149918989Y-70651120D01*
X149787173Y-70671291D01*
X149703284Y-70684127D01*
X149703280Y-70684128D01*
X149698169Y-70684910D01*
X149693251Y-70686518D01*
X149692720Y-70686644D01*
X149621818Y-70682973D01*
X149564157Y-70641552D01*
X149538042Y-70575533D01*
X149542961Y-70527449D01*
X149550397Y-70502973D01*
X149579556Y-70281494D01*
X149581183Y-70214904D01*
X149562879Y-69992265D01*
X149508458Y-69775606D01*
X149419381Y-69570744D01*
X149375030Y-69502188D01*
X149300849Y-69387521D01*
X149300847Y-69387518D01*
X149298041Y-69383181D01*
X149147697Y-69217955D01*
X149143646Y-69214756D01*
X149143642Y-69214752D01*
X148976441Y-69082704D01*
X148976437Y-69082702D01*
X148972386Y-69079502D01*
X148776816Y-68971542D01*
X148771947Y-68969818D01*
X148771943Y-68969816D01*
X148571114Y-68898699D01*
X148571110Y-68898698D01*
X148566239Y-68896973D01*
X148561146Y-68896066D01*
X148561143Y-68896065D01*
X148351400Y-68858704D01*
X148351394Y-68858703D01*
X148346311Y-68857798D01*
X148272479Y-68856896D01*
X148128108Y-68855132D01*
X148128106Y-68855132D01*
X148122938Y-68855069D01*
X148023997Y-68870209D01*
X147907232Y-68888076D01*
X147907227Y-68888077D01*
X147902118Y-68888859D01*
X147897204Y-68890465D01*
X147896663Y-68890594D01*
X147825762Y-68886921D01*
X147768101Y-68845499D01*
X147741989Y-68779478D01*
X147746908Y-68731398D01*
X147754345Y-68706921D01*
X147783504Y-68485442D01*
X147785131Y-68418852D01*
X147766827Y-68196213D01*
X147712406Y-67979554D01*
X147623329Y-67774692D01*
X147501989Y-67587129D01*
X147351645Y-67421903D01*
X147347594Y-67418704D01*
X147347590Y-67418700D01*
X147180389Y-67286652D01*
X147180385Y-67286650D01*
X147176334Y-67283450D01*
X146980764Y-67175490D01*
X146975895Y-67173766D01*
X146975891Y-67173764D01*
X146775062Y-67102647D01*
X146775058Y-67102646D01*
X146770187Y-67100921D01*
X146765094Y-67100014D01*
X146765091Y-67100013D01*
X146555348Y-67062652D01*
X146555342Y-67062651D01*
X146550259Y-67061746D01*
X146476427Y-67060844D01*
X146332056Y-67059080D01*
X146332054Y-67059080D01*
X146326886Y-67059017D01*
X146195070Y-67079188D01*
X146111181Y-67092024D01*
X146111177Y-67092025D01*
X146106066Y-67092807D01*
X146101148Y-67094415D01*
X146100617Y-67094541D01*
X146029715Y-67090870D01*
X145972054Y-67049449D01*
X145945939Y-66983430D01*
X145950858Y-66935346D01*
X145958294Y-66910870D01*
X145987453Y-66689391D01*
X145989080Y-66622801D01*
X145970776Y-66400162D01*
X145916355Y-66183503D01*
X145827278Y-65978641D01*
X145745348Y-65851996D01*
X145708746Y-65795418D01*
X145708744Y-65795415D01*
X145705938Y-65791078D01*
X145555594Y-65625852D01*
X145551543Y-65622653D01*
X145551539Y-65622649D01*
X145384338Y-65490601D01*
X145384334Y-65490599D01*
X145380283Y-65487399D01*
X145184713Y-65379439D01*
X145179844Y-65377715D01*
X145179840Y-65377713D01*
X144979011Y-65306596D01*
X144979007Y-65306595D01*
X144974136Y-65304870D01*
X144969043Y-65303963D01*
X144969040Y-65303962D01*
X144759297Y-65266601D01*
X144759291Y-65266600D01*
X144754208Y-65265695D01*
X144680376Y-65264793D01*
X144536005Y-65263029D01*
X144536003Y-65263029D01*
X144530835Y-65262966D01*
X144310015Y-65296756D01*
X144097680Y-65366158D01*
X143899531Y-65469308D01*
X143895398Y-65472411D01*
X143895395Y-65472413D01*
X143871171Y-65490601D01*
X143720889Y-65603436D01*
X143566553Y-65764939D01*
X143563639Y-65769211D01*
X143563638Y-65769212D01*
X143507167Y-65851996D01*
X143440667Y-65949481D01*
X143410585Y-66014288D01*
X143352365Y-66139713D01*
X143346612Y-66152106D01*
X143286913Y-66367371D01*
X143263175Y-66589496D01*
X143263472Y-66594649D01*
X143263472Y-66594652D01*
X143271593Y-66735492D01*
X143276034Y-66812516D01*
X143277171Y-66817562D01*
X143277172Y-66817568D01*
X143306151Y-66946154D01*
X143301615Y-67017006D01*
X143259493Y-67074157D01*
X143193160Y-67099463D01*
X143161138Y-67097902D01*
X142963246Y-67062652D01*
X142963240Y-67062651D01*
X142958157Y-67061746D01*
X142884325Y-67060844D01*
X142739954Y-67059080D01*
X142739952Y-67059080D01*
X142734784Y-67059017D01*
X142513964Y-67092807D01*
X142301629Y-67162209D01*
X142276103Y-67175497D01*
X142125103Y-67254103D01*
X142103480Y-67265359D01*
X142099347Y-67268462D01*
X142099344Y-67268464D01*
X141928973Y-67396382D01*
X141924838Y-67399487D01*
X141921266Y-67403225D01*
X141827385Y-67501466D01*
X141770502Y-67560990D01*
X141767588Y-67565262D01*
X141767587Y-67565263D01*
X141725030Y-67627649D01*
X141644616Y-67745532D01*
X141615597Y-67808049D01*
X141553288Y-67942283D01*
X141550561Y-67948157D01*
X141490862Y-68163422D01*
X141467124Y-68385547D01*
X135967169Y-68385547D01*
X135964852Y-68357361D01*
X135910431Y-68140702D01*
X135821354Y-67935840D01*
X135744203Y-67816583D01*
X135702822Y-67752617D01*
X135702820Y-67752614D01*
X135700014Y-67748277D01*
X135549670Y-67583051D01*
X135545619Y-67579852D01*
X135545615Y-67579848D01*
X135378414Y-67447800D01*
X135378410Y-67447798D01*
X135374359Y-67444598D01*
X135178789Y-67336638D01*
X135173920Y-67334914D01*
X135173916Y-67334912D01*
X134973087Y-67263795D01*
X134973083Y-67263794D01*
X134968212Y-67262069D01*
X134963119Y-67261162D01*
X134963116Y-67261161D01*
X134753373Y-67223800D01*
X134753367Y-67223799D01*
X134748284Y-67222894D01*
X134674452Y-67221992D01*
X134530081Y-67220228D01*
X134530079Y-67220228D01*
X134524911Y-67220165D01*
X134304091Y-67253955D01*
X134091756Y-67323357D01*
X133893607Y-67426507D01*
X133889474Y-67429610D01*
X133889471Y-67429612D01*
X133719469Y-67557253D01*
X133714965Y-67560635D01*
X133711393Y-67564373D01*
X133633898Y-67645466D01*
X133572374Y-67680895D01*
X133501462Y-67677438D01*
X133443676Y-67636192D01*
X133424823Y-67602644D01*
X133383324Y-67491946D01*
X133374786Y-67476351D01*
X133298285Y-67374276D01*
X133285724Y-67361715D01*
X133183649Y-67285214D01*
X133168054Y-67276676D01*
X133047606Y-67231522D01*
X133032351Y-67227895D01*
X132981486Y-67222369D01*
X132974672Y-67222000D01*
X132352115Y-67222000D01*
X132336876Y-67226475D01*
X132335671Y-67227865D01*
X132334000Y-67235548D01*
X132334000Y-69919884D01*
X131826000Y-69919884D01*
X131826000Y-68852115D01*
X131821525Y-68836876D01*
X131820135Y-68835671D01*
X131812452Y-68834000D01*
X130740116Y-68834000D01*
X130724877Y-68838475D01*
X130723672Y-68839865D01*
X130722001Y-68847548D01*
X130722001Y-69474669D01*
X125911380Y-69474669D01*
X126000622Y-69391740D01*
X126182713Y-69169268D01*
X126332927Y-68924142D01*
X126348759Y-68888077D01*
X126446757Y-68664830D01*
X126448483Y-68660898D01*
X126527244Y-68384406D01*
X126538134Y-68307885D01*
X130722000Y-68307885D01*
X130726475Y-68323124D01*
X130727865Y-68324329D01*
X130735548Y-68326000D01*
X131807885Y-68326000D01*
X131823124Y-68321525D01*
X131824329Y-68320135D01*
X131826000Y-68312452D01*
X131826000Y-67240116D01*
X131821525Y-67224877D01*
X131820135Y-67223672D01*
X131812452Y-67222001D01*
X131185331Y-67222001D01*
X131178510Y-67222371D01*
X131127648Y-67227895D01*
X131112396Y-67231521D01*
X130991946Y-67276676D01*
X130976351Y-67285214D01*
X130874276Y-67361715D01*
X130861715Y-67374276D01*
X130785214Y-67476351D01*
X130776676Y-67491946D01*
X130731522Y-67612394D01*
X130727895Y-67627649D01*
X130722369Y-67678514D01*
X130722000Y-67685328D01*
X130722000Y-68307885D01*
X126538134Y-68307885D01*
X126559403Y-68158440D01*
X126567146Y-68104036D01*
X126567146Y-68104034D01*
X126567751Y-68099784D01*
X126567845Y-68081951D01*
X126569235Y-67816583D01*
X126569235Y-67816576D01*
X126569257Y-67812297D01*
X126531732Y-67527266D01*
X126455871Y-67249964D01*
X126423290Y-67173580D01*
X126344763Y-66989476D01*
X126344761Y-66989472D01*
X126343077Y-66985524D01*
X126195439Y-66738839D01*
X126015687Y-66514472D01*
X125807149Y-66316577D01*
X125573683Y-66148814D01*
X125551843Y-66137250D01*
X125528654Y-66124972D01*
X125319608Y-66014288D01*
X125049627Y-65915489D01*
X124768736Y-65854245D01*
X124737685Y-65851801D01*
X124545718Y-65836693D01*
X124545709Y-65836693D01*
X124543261Y-65836500D01*
X124387729Y-65836500D01*
X124385593Y-65836646D01*
X124385582Y-65836646D01*
X124177452Y-65850835D01*
X124177446Y-65850836D01*
X124173175Y-65851127D01*
X124168980Y-65851996D01*
X124168978Y-65851996D01*
X124032417Y-65880276D01*
X123891658Y-65909426D01*
X123620657Y-66005393D01*
X123365188Y-66137250D01*
X123361687Y-66139711D01*
X123361683Y-66139713D01*
X123292237Y-66188521D01*
X123129977Y-66302559D01*
X122919378Y-66498260D01*
X122737287Y-66720732D01*
X122587073Y-66965858D01*
X122585347Y-66969791D01*
X122585346Y-66969792D01*
X122527027Y-67102647D01*
X122471517Y-67229102D01*
X122470342Y-67233229D01*
X122470341Y-67233230D01*
X122455533Y-67285214D01*
X122392756Y-67505594D01*
X122352249Y-67790216D01*
X122352227Y-67794505D01*
X122352226Y-67794512D01*
X122350765Y-68073417D01*
X122350743Y-68077703D01*
X119888500Y-68077703D01*
X119888500Y-64134500D01*
X119908502Y-64066379D01*
X119962158Y-64019886D01*
X120014500Y-64008500D01*
X154305500Y-64008500D01*
X154373621Y-64028502D01*
G37*
%TD.AperFunction*%
%TD*%
M02*
