%TF.GenerationSoftware,KiCad,Pcbnew,6.0.9-8da3e8f707~117~ubuntu22.04.1*%
%TF.CreationDate,2022-11-29T09:47:06-05:00*%
%TF.ProjectId,RFTransmitterV3,52465472-616e-4736-9d69-747465725633,rev?*%
%TF.SameCoordinates,Original*%
%TF.FileFunction,Legend,Bot*%
%TF.FilePolarity,Positive*%
%FSLAX46Y46*%
G04 Gerber Fmt 4.6, Leading zero omitted, Abs format (unit mm)*
G04 Created by KiCad (PCBNEW 6.0.9-8da3e8f707~117~ubuntu22.04.1) date 2022-11-29 09:47:06*
%MOMM*%
%LPD*%
G01*
G04 APERTURE LIST*
%ADD10C,0.200000*%
%ADD11C,0.300000*%
%ADD12C,0.150000*%
%ADD13C,0.120000*%
G04 APERTURE END LIST*
D10*
X153634034Y-81530187D02*
X153693558Y-81708759D01*
X153753081Y-81768283D01*
X153872129Y-81827806D01*
X154050700Y-81827806D01*
X154169748Y-81768283D01*
X154229272Y-81708759D01*
X154288796Y-81589711D01*
X154288796Y-81113521D01*
X153038796Y-81113521D01*
X153038796Y-81530187D01*
X153098320Y-81649235D01*
X153157843Y-81708759D01*
X153276891Y-81768283D01*
X153395939Y-81768283D01*
X153514986Y-81708759D01*
X153574510Y-81649235D01*
X153634034Y-81530187D01*
X153634034Y-81113521D01*
X153455462Y-82244473D02*
X154288796Y-82542092D01*
X153455462Y-82839711D02*
X154288796Y-82542092D01*
X154586415Y-82423044D01*
X154645939Y-82363521D01*
X154705462Y-82244473D01*
X153634034Y-84684949D02*
X153693558Y-84863521D01*
X153753081Y-84923044D01*
X153872129Y-84982568D01*
X154050700Y-84982568D01*
X154169748Y-84923044D01*
X154229272Y-84863521D01*
X154288796Y-84744473D01*
X154288796Y-84268283D01*
X153038796Y-84268283D01*
X153038796Y-84684949D01*
X153098320Y-84803997D01*
X153157843Y-84863521D01*
X153276891Y-84923044D01*
X153395939Y-84923044D01*
X153514986Y-84863521D01*
X153574510Y-84803997D01*
X153634034Y-84684949D01*
X153634034Y-84268283D01*
X154229272Y-85994473D02*
X154288796Y-85875425D01*
X154288796Y-85637330D01*
X154229272Y-85518283D01*
X154110224Y-85458759D01*
X153634034Y-85458759D01*
X153514986Y-85518283D01*
X153455462Y-85637330D01*
X153455462Y-85875425D01*
X153514986Y-85994473D01*
X153634034Y-86053997D01*
X153753081Y-86053997D01*
X153872129Y-85458759D01*
X153455462Y-86589711D02*
X154288796Y-86589711D01*
X153574510Y-86589711D02*
X153514986Y-86649235D01*
X153455462Y-86768283D01*
X153455462Y-86946854D01*
X153514986Y-87065902D01*
X153634034Y-87125425D01*
X154288796Y-87125425D01*
X154229272Y-87780187D02*
X154288796Y-87780187D01*
X154407843Y-87720664D01*
X154467367Y-87661140D01*
X153038796Y-89625425D02*
X153931653Y-89625425D01*
X154110224Y-89565902D01*
X154229272Y-89446854D01*
X154288796Y-89268283D01*
X154288796Y-89149235D01*
X153038796Y-90101616D02*
X154288796Y-90399235D01*
X153395939Y-90637330D01*
X154288796Y-90875425D01*
X153038796Y-91173044D01*
X154229272Y-91708759D02*
X154288796Y-91708759D01*
X154407843Y-91649235D01*
X154467367Y-91589711D01*
X154288796Y-93732568D02*
X153634034Y-93732568D01*
X153514986Y-93673044D01*
X153455462Y-93553997D01*
X153455462Y-93315902D01*
X153514986Y-93196854D01*
X154229272Y-93732568D02*
X154288796Y-93613521D01*
X154288796Y-93315902D01*
X154229272Y-93196854D01*
X154110224Y-93137330D01*
X153991177Y-93137330D01*
X153872129Y-93196854D01*
X153812605Y-93315902D01*
X153812605Y-93613521D01*
X153753081Y-93732568D01*
X153455462Y-94327806D02*
X154288796Y-94327806D01*
X153574510Y-94327806D02*
X153514986Y-94387330D01*
X153455462Y-94506378D01*
X153455462Y-94684949D01*
X153514986Y-94803997D01*
X153634034Y-94863521D01*
X154288796Y-94863521D01*
X154288796Y-95994473D02*
X153038796Y-95994473D01*
X154229272Y-95994473D02*
X154288796Y-95875425D01*
X154288796Y-95637330D01*
X154229272Y-95518283D01*
X154169748Y-95458759D01*
X154050700Y-95399235D01*
X153693558Y-95399235D01*
X153574510Y-95458759D01*
X153514986Y-95518283D01*
X153455462Y-95637330D01*
X153455462Y-95875425D01*
X153514986Y-95994473D01*
X153098320Y-98196854D02*
X153038796Y-98077806D01*
X153038796Y-97899235D01*
X153098320Y-97720664D01*
X153217367Y-97601616D01*
X153336415Y-97542092D01*
X153574510Y-97482568D01*
X153753081Y-97482568D01*
X153991177Y-97542092D01*
X154110224Y-97601616D01*
X154229272Y-97720664D01*
X154288796Y-97899235D01*
X154288796Y-98018283D01*
X154229272Y-98196854D01*
X154169748Y-98256378D01*
X153753081Y-98256378D01*
X153753081Y-98018283D01*
X154288796Y-98792092D02*
X153455462Y-98792092D01*
X153693558Y-98792092D02*
X153574510Y-98851616D01*
X153514986Y-98911140D01*
X153455462Y-99030187D01*
X153455462Y-99149235D01*
X154288796Y-100101616D02*
X153634034Y-100101616D01*
X153514986Y-100042092D01*
X153455462Y-99923044D01*
X153455462Y-99684949D01*
X153514986Y-99565902D01*
X154229272Y-100101616D02*
X154288796Y-99982568D01*
X154288796Y-99684949D01*
X154229272Y-99565902D01*
X154110224Y-99506378D01*
X153991177Y-99506378D01*
X153872129Y-99565902D01*
X153812605Y-99684949D01*
X153812605Y-99982568D01*
X153753081Y-100101616D01*
X153455462Y-100577806D02*
X154288796Y-100875425D01*
X153455462Y-101173044D02*
X154288796Y-100875425D01*
X154586415Y-100756378D01*
X154645939Y-100696854D01*
X154705462Y-100577806D01*
X154229272Y-101589711D02*
X154288796Y-101708759D01*
X154288796Y-101946854D01*
X154229272Y-102065902D01*
X154110224Y-102125425D01*
X154050700Y-102125425D01*
X153931653Y-102065902D01*
X153872129Y-101946854D01*
X153872129Y-101768283D01*
X153812605Y-101649235D01*
X153693558Y-101589711D01*
X153634034Y-101589711D01*
X153514986Y-101649235D01*
X153455462Y-101768283D01*
X153455462Y-101946854D01*
X153514986Y-102065902D01*
X154288796Y-102839711D02*
X154229272Y-102720664D01*
X154169748Y-102661140D01*
X154050700Y-102601616D01*
X153693558Y-102601616D01*
X153574510Y-102661140D01*
X153514986Y-102720664D01*
X153455462Y-102839711D01*
X153455462Y-103018283D01*
X153514986Y-103137330D01*
X153574510Y-103196854D01*
X153693558Y-103256378D01*
X154050700Y-103256378D01*
X154169748Y-103196854D01*
X154229272Y-103137330D01*
X154288796Y-103018283D01*
X154288796Y-102839711D01*
X153455462Y-103792092D02*
X154288796Y-103792092D01*
X153574510Y-103792092D02*
X153514986Y-103851616D01*
X153455462Y-103970664D01*
X153455462Y-104149235D01*
X153514986Y-104268283D01*
X153634034Y-104327806D01*
X154288796Y-104327806D01*
D11*
X144592423Y-105121209D02*
X144592423Y-103621209D01*
X144092423Y-104121209D02*
X143520995Y-104121209D01*
X143878138Y-103621209D02*
X143878138Y-104906923D01*
X143806709Y-105049780D01*
X143663852Y-105121209D01*
X143520995Y-105121209D01*
X142949566Y-103621209D02*
X143092423Y-103906923D01*
X142378138Y-105049780D02*
X142235280Y-105121209D01*
X141949566Y-105121209D01*
X141806709Y-105049780D01*
X141735280Y-104906923D01*
X141735280Y-104835495D01*
X141806709Y-104692638D01*
X141949566Y-104621209D01*
X142163852Y-104621209D01*
X142306709Y-104549780D01*
X142378138Y-104406923D01*
X142378138Y-104335495D01*
X142306709Y-104192638D01*
X142163852Y-104121209D01*
X141949566Y-104121209D01*
X141806709Y-104192638D01*
X140163852Y-103621209D02*
X139306709Y-103621209D01*
X139735280Y-105121209D02*
X139735280Y-103621209D01*
X138806709Y-105121209D02*
X138806709Y-104121209D01*
X138806709Y-104406923D02*
X138735280Y-104264066D01*
X138663852Y-104192638D01*
X138520995Y-104121209D01*
X138378138Y-104121209D01*
X137235280Y-105121209D02*
X137235280Y-104335495D01*
X137306709Y-104192638D01*
X137449566Y-104121209D01*
X137735280Y-104121209D01*
X137878138Y-104192638D01*
X137235280Y-105049780D02*
X137378138Y-105121209D01*
X137735280Y-105121209D01*
X137878138Y-105049780D01*
X137949566Y-104906923D01*
X137949566Y-104764066D01*
X137878138Y-104621209D01*
X137735280Y-104549780D01*
X137378138Y-104549780D01*
X137235280Y-104478352D01*
X136520995Y-104121209D02*
X136520995Y-105121209D01*
X136520995Y-104264066D02*
X136449566Y-104192638D01*
X136306709Y-104121209D01*
X136092423Y-104121209D01*
X135949566Y-104192638D01*
X135878138Y-104335495D01*
X135878138Y-105121209D01*
X135235280Y-105049780D02*
X135092423Y-105121209D01*
X134806709Y-105121209D01*
X134663852Y-105049780D01*
X134592423Y-104906923D01*
X134592423Y-104835495D01*
X134663852Y-104692638D01*
X134806709Y-104621209D01*
X135020995Y-104621209D01*
X135163852Y-104549780D01*
X135235280Y-104406923D01*
X135235280Y-104335495D01*
X135163852Y-104192638D01*
X135020995Y-104121209D01*
X134806709Y-104121209D01*
X134663852Y-104192638D01*
X133949566Y-105121209D02*
X133949566Y-104121209D01*
X133949566Y-104264066D02*
X133878138Y-104192638D01*
X133735280Y-104121209D01*
X133520995Y-104121209D01*
X133378138Y-104192638D01*
X133306709Y-104335495D01*
X133306709Y-105121209D01*
X133306709Y-104335495D02*
X133235280Y-104192638D01*
X133092423Y-104121209D01*
X132878138Y-104121209D01*
X132735280Y-104192638D01*
X132663852Y-104335495D01*
X132663852Y-105121209D01*
X131949566Y-105121209D02*
X131949566Y-104121209D01*
X131949566Y-103621209D02*
X132020995Y-103692638D01*
X131949566Y-103764066D01*
X131878138Y-103692638D01*
X131949566Y-103621209D01*
X131949566Y-103764066D01*
X131449566Y-104121209D02*
X130878138Y-104121209D01*
X131235280Y-103621209D02*
X131235280Y-104906923D01*
X131163852Y-105049780D01*
X131020995Y-105121209D01*
X130878138Y-105121209D01*
X130592423Y-104121209D02*
X130020995Y-104121209D01*
X130378138Y-103621209D02*
X130378138Y-104906923D01*
X130306709Y-105049780D01*
X130163852Y-105121209D01*
X130020995Y-105121209D01*
X129520995Y-105121209D02*
X129520995Y-104121209D01*
X129520995Y-103621209D02*
X129592423Y-103692638D01*
X129520995Y-103764066D01*
X129449566Y-103692638D01*
X129520995Y-103621209D01*
X129520995Y-103764066D01*
X128806709Y-104121209D02*
X128806709Y-105121209D01*
X128806709Y-104264066D02*
X128735280Y-104192638D01*
X128592423Y-104121209D01*
X128378138Y-104121209D01*
X128235280Y-104192638D01*
X128163852Y-104335495D01*
X128163852Y-105121209D01*
X127378138Y-103621209D02*
X127520995Y-103906923D01*
X125806709Y-103621209D02*
X124949566Y-103621209D01*
X125378138Y-105121209D02*
X125378138Y-103621209D01*
X124449566Y-105121209D02*
X124449566Y-104121209D01*
X124449566Y-103621209D02*
X124520995Y-103692638D01*
X124449566Y-103764066D01*
X124378138Y-103692638D01*
X124449566Y-103621209D01*
X124449566Y-103764066D01*
X123735280Y-105121209D02*
X123735280Y-104121209D01*
X123735280Y-104264066D02*
X123663852Y-104192638D01*
X123520995Y-104121209D01*
X123306709Y-104121209D01*
X123163852Y-104192638D01*
X123092423Y-104335495D01*
X123092423Y-105121209D01*
X123092423Y-104335495D02*
X123020995Y-104192638D01*
X122878138Y-104121209D01*
X122663852Y-104121209D01*
X122520995Y-104192638D01*
X122449566Y-104335495D01*
X122449566Y-105121209D01*
X121163852Y-105049780D02*
X121306709Y-105121209D01*
X121592423Y-105121209D01*
X121735280Y-105049780D01*
X121806709Y-104906923D01*
X121806709Y-104335495D01*
X121735280Y-104192638D01*
X121592423Y-104121209D01*
X121306709Y-104121209D01*
X121163852Y-104192638D01*
X121092423Y-104335495D01*
X121092423Y-104478352D01*
X121806709Y-104621209D01*
D12*
%TO.C,BT1*%
X151895714Y-81788571D02*
X151752857Y-81836190D01*
X151705238Y-81883809D01*
X151657619Y-81979047D01*
X151657619Y-82121904D01*
X151705238Y-82217142D01*
X151752857Y-82264761D01*
X151848095Y-82312380D01*
X152229047Y-82312380D01*
X152229047Y-81312380D01*
X151895714Y-81312380D01*
X151800476Y-81360000D01*
X151752857Y-81407619D01*
X151705238Y-81502857D01*
X151705238Y-81598095D01*
X151752857Y-81693333D01*
X151800476Y-81740952D01*
X151895714Y-81788571D01*
X152229047Y-81788571D01*
X151371904Y-81312380D02*
X150800476Y-81312380D01*
X151086190Y-82312380D02*
X151086190Y-81312380D01*
X149943333Y-82312380D02*
X150514761Y-82312380D01*
X150229047Y-82312380D02*
X150229047Y-81312380D01*
X150324285Y-81455238D01*
X150419523Y-81550476D01*
X150514761Y-81598095D01*
X147681428Y-86467142D02*
X146538571Y-86467142D01*
X147110000Y-87038571D02*
X147110000Y-85895714D01*
D13*
X148910000Y-83310000D02*
X151360000Y-83310000D01*
X151910000Y-83860000D02*
X151910000Y-88860000D01*
X151360000Y-89410000D02*
X148910000Y-89410000D01*
X148210000Y-82840000D02*
G75*
G03*
X120660262Y-86375231I-13550000J-3520000D01*
G01*
X120660262Y-86344769D02*
G75*
G03*
X148210000Y-89880000I13999738J-15231D01*
G01*
X151360000Y-89410000D02*
G75*
G03*
X151910000Y-88860000I1J549999D01*
G01*
X151910000Y-83860000D02*
G75*
G03*
X151360000Y-83310000I-549999J1D01*
G01*
X148910000Y-89410000D02*
G75*
G03*
X148205231Y-89903485I0J-750000D01*
G01*
X148205231Y-82816515D02*
G75*
G03*
X148910000Y-83310000I704769J256515D01*
G01*
%TD*%
M02*
