%TF.GenerationSoftware,KiCad,Pcbnew,6.0.9-8da3e8f707~117~ubuntu22.04.1*%
%TF.CreationDate,2022-11-29T09:47:06-05:00*%
%TF.ProjectId,RFTransmitterV3,52465472-616e-4736-9d69-747465725633,rev?*%
%TF.SameCoordinates,Original*%
%TF.FileFunction,Copper,L4,Bot*%
%TF.FilePolarity,Positive*%
%FSLAX46Y46*%
G04 Gerber Fmt 4.6, Leading zero omitted, Abs format (unit mm)*
G04 Created by KiCad (PCBNEW 6.0.9-8da3e8f707~117~ubuntu22.04.1) date 2022-11-29 09:47:06*
%MOMM*%
%LPD*%
G01*
G04 APERTURE LIST*
G04 Aperture macros list*
%AMHorizOval*
0 Thick line with rounded ends*
0 $1 width*
0 $2 $3 position (X,Y) of the first rounded end (center of the circle)*
0 $4 $5 position (X,Y) of the second rounded end (center of the circle)*
0 Add line between two ends*
20,1,$1,$2,$3,$4,$5,0*
0 Add two circle primitives to create the rounded ends*
1,1,$1,$2,$3*
1,1,$1,$4,$5*%
%AMRotRect*
0 Rectangle, with rotation*
0 The origin of the aperture is its center*
0 $1 length*
0 $2 width*
0 $3 Rotation angle, in degrees counterclockwise*
0 Add horizontal line*
21,1,$1,$2,0,0,$3*%
G04 Aperture macros list end*
%TA.AperFunction,ComponentPad*%
%ADD10RotRect,1.700000X1.700000X225.000000*%
%TD*%
%TA.AperFunction,ComponentPad*%
%ADD11HorizOval,1.700000X0.000000X0.000000X0.000000X0.000000X0*%
%TD*%
%TA.AperFunction,ComponentPad*%
%ADD12R,1.700000X1.700000*%
%TD*%
%TA.AperFunction,ComponentPad*%
%ADD13O,1.700000X1.700000*%
%TD*%
%TA.AperFunction,ComponentPad*%
%ADD14R,3.000000X3.000000*%
%TD*%
%TA.AperFunction,ComponentPad*%
%ADD15C,3.000000*%
%TD*%
%TA.AperFunction,ViaPad*%
%ADD16C,0.800000*%
%TD*%
%TA.AperFunction,Conductor*%
%ADD17C,0.250000*%
%TD*%
G04 APERTURE END LIST*
D10*
%TO.P,PROG,1,Pin_1*%
%TO.N,unconnected-(J1-Pad1)*%
X151810129Y-73807006D03*
D11*
%TO.P,PROG,2,Pin_2*%
%TO.N,GND*%
X150014078Y-75603057D03*
%TO.P,PROG,3,Pin_3*%
%TO.N,unconnected-(J1-Pad3)*%
X150014078Y-72010955D03*
%TO.P,PROG,4,Pin_4*%
%TO.N,/C2DAT*%
X148218027Y-73807006D03*
%TO.P,PROG,5,Pin_5*%
%TO.N,unconnected-(J1-Pad5)*%
X148218027Y-70214904D03*
%TO.P,PROG,6,Pin_6*%
%TO.N,unconnected-(J1-Pad6)*%
X146421975Y-72010955D03*
%TO.P,PROG,7,Pin_7*%
%TO.N,/C2CLK*%
X146421975Y-68418852D03*
%TO.P,PROG,8,Pin_8*%
%TO.N,unconnected-(J1-Pad8)*%
X144625924Y-70214904D03*
%TO.P,PROG,9,Pin_9*%
%TO.N,unconnected-(J1-Pad9)*%
X144625924Y-66622801D03*
%TO.P,PROG,10,Pin_10*%
%TO.N,unconnected-(J1-Pad10)*%
X142829873Y-68418852D03*
%TD*%
D12*
%TO.P,J3,1,Pin_1*%
%TO.N,GND*%
X132080000Y-68580000D03*
D13*
%TO.P,J3,2,Pin_2*%
%TO.N,/VPP*%
X134620000Y-68580000D03*
%TD*%
D12*
%TO.P,AE1,1,A*%
%TO.N,Net-(AE1-Pad1)*%
X121920000Y-76200000D03*
%TD*%
D14*
%TO.P,BT1,1,+*%
%TO.N,+3V3*%
X149860000Y-86360000D03*
D15*
%TO.P,BT1,2,-*%
%TO.N,GND*%
X129370000Y-86360000D03*
%TD*%
D16*
%TO.N,+3V3*%
X134620000Y-93980000D03*
%TO.N,GND*%
X152400000Y-91440000D03*
X134620000Y-83820000D03*
%TO.N,/C2CLK*%
X140391683Y-87628048D03*
%TO.N,/C2DAT*%
X144780000Y-88900000D03*
%TO.N,GPIO3*%
X142240000Y-76200000D03*
X140361215Y-84695664D03*
%TO.N,GPIO8*%
X132080000Y-91440000D03*
X139306844Y-82890723D03*
%TD*%
D17*
%TO.N,/VPP*%
X134620000Y-68580000D02*
X134620000Y-81280000D01*
X134620000Y-81280000D02*
X137160000Y-83820000D01*
%TO.N,/C2CLK*%
X143802670Y-84217061D02*
X140391683Y-87628048D01*
X143802670Y-72699859D02*
X143802670Y-84217061D01*
X146421975Y-70080554D02*
X143802670Y-72699859D01*
X146421975Y-68418852D02*
X146421975Y-70080554D01*
%TO.N,/C2DAT*%
X144780000Y-77245033D02*
X144780000Y-88900000D01*
X148218027Y-73807006D02*
X144780000Y-77245033D01*
%TO.N,GPIO3*%
X142240000Y-76200000D02*
X140361215Y-78078785D01*
X140361215Y-78078785D02*
X140361215Y-84695664D01*
%TO.N,GPIO8*%
X139306844Y-82890723D02*
X139306844Y-84213156D01*
X139306844Y-84213156D02*
X132080000Y-91440000D01*
%TD*%
M02*
