%TF.GenerationSoftware,KiCad,Pcbnew,6.0.9-8da3e8f707~117~ubuntu22.04.1*%
%TF.CreationDate,2022-11-29T09:47:06-05:00*%
%TF.ProjectId,RFTransmitterV3,52465472-616e-4736-9d69-747465725633,rev?*%
%TF.SameCoordinates,Original*%
%TF.FileFunction,Copper,L1,Top*%
%TF.FilePolarity,Positive*%
%FSLAX46Y46*%
G04 Gerber Fmt 4.6, Leading zero omitted, Abs format (unit mm)*
G04 Created by KiCad (PCBNEW 6.0.9-8da3e8f707~117~ubuntu22.04.1) date 2022-11-29 09:47:06*
%MOMM*%
%LPD*%
G01*
G04 APERTURE LIST*
G04 Aperture macros list*
%AMRoundRect*
0 Rectangle with rounded corners*
0 $1 Rounding radius*
0 $2 $3 $4 $5 $6 $7 $8 $9 X,Y pos of 4 corners*
0 Add a 4 corners polygon primitive as box body*
4,1,4,$2,$3,$4,$5,$6,$7,$8,$9,$2,$3,0*
0 Add four circle primitives for the rounded corners*
1,1,$1+$1,$2,$3*
1,1,$1+$1,$4,$5*
1,1,$1+$1,$6,$7*
1,1,$1+$1,$8,$9*
0 Add four rect primitives between the rounded corners*
20,1,$1+$1,$2,$3,$4,$5,0*
20,1,$1+$1,$4,$5,$6,$7,0*
20,1,$1+$1,$6,$7,$8,$9,0*
20,1,$1+$1,$8,$9,$2,$3,0*%
%AMHorizOval*
0 Thick line with rounded ends*
0 $1 width*
0 $2 $3 position (X,Y) of the first rounded end (center of the circle)*
0 $4 $5 position (X,Y) of the second rounded end (center of the circle)*
0 Add line between two ends*
20,1,$1,$2,$3,$4,$5,0*
0 Add two circle primitives to create the rounded ends*
1,1,$1,$2,$3*
1,1,$1,$4,$5*%
%AMRotRect*
0 Rectangle, with rotation*
0 The origin of the aperture is its center*
0 $1 length*
0 $2 width*
0 $3 Rotation angle, in degrees counterclockwise*
0 Add horizontal line*
21,1,$1,$2,0,0,$3*%
G04 Aperture macros list end*
%TA.AperFunction,SMDPad,CuDef*%
%ADD10RoundRect,0.250000X-0.350000X-0.450000X0.350000X-0.450000X0.350000X0.450000X-0.350000X0.450000X0*%
%TD*%
%TA.AperFunction,SMDPad,CuDef*%
%ADD11R,1.200000X1.820000*%
%TD*%
%TA.AperFunction,SMDPad,CuDef*%
%ADD12RoundRect,0.250000X0.350000X0.450000X-0.350000X0.450000X-0.350000X-0.450000X0.350000X-0.450000X0*%
%TD*%
%TA.AperFunction,ComponentPad*%
%ADD13RotRect,1.700000X1.700000X225.000000*%
%TD*%
%TA.AperFunction,ComponentPad*%
%ADD14HorizOval,1.700000X0.000000X0.000000X0.000000X0.000000X0*%
%TD*%
%TA.AperFunction,SMDPad,CuDef*%
%ADD15R,2.400000X2.100000*%
%TD*%
%TA.AperFunction,SMDPad,CuDef*%
%ADD16RoundRect,0.250000X-0.325000X-0.450000X0.325000X-0.450000X0.325000X0.450000X-0.325000X0.450000X0*%
%TD*%
%TA.AperFunction,ComponentPad*%
%ADD17R,1.700000X1.700000*%
%TD*%
%TA.AperFunction,ComponentPad*%
%ADD18O,1.700000X1.700000*%
%TD*%
%TA.AperFunction,SMDPad,CuDef*%
%ADD19RoundRect,0.150000X-0.825000X-0.150000X0.825000X-0.150000X0.825000X0.150000X-0.825000X0.150000X0*%
%TD*%
%TA.AperFunction,ComponentPad*%
%ADD20R,3.000000X3.000000*%
%TD*%
%TA.AperFunction,ComponentPad*%
%ADD21C,3.000000*%
%TD*%
%TA.AperFunction,ViaPad*%
%ADD22C,0.800000*%
%TD*%
%TA.AperFunction,Conductor*%
%ADD23C,0.250000*%
%TD*%
G04 APERTURE END LIST*
D10*
%TO.P,R3,1*%
%TO.N,Net-(D3-Pad2)*%
X128540000Y-93980000D03*
%TO.P,R3,2*%
%TO.N,GPIO8*%
X130540000Y-93980000D03*
%TD*%
D11*
%TO.P,L1,1*%
%TO.N,Net-(AE1-Pad1)*%
X127651648Y-82448962D03*
%TO.P,L1,2*%
%TO.N,/TXP*%
X129371648Y-82448962D03*
%TD*%
D12*
%TO.P,R4,1*%
%TO.N,GND*%
X150860000Y-93980000D03*
%TO.P,R4,2*%
%TO.N,GPIO2*%
X148860000Y-93980000D03*
%TD*%
D13*
%TO.P,PROG,1,Pin_1*%
%TO.N,unconnected-(J1-Pad1)*%
X151810129Y-73807006D03*
D14*
%TO.P,PROG,2,Pin_2*%
%TO.N,GND*%
X150014078Y-75603057D03*
%TO.P,PROG,3,Pin_3*%
%TO.N,unconnected-(J1-Pad3)*%
X150014078Y-72010955D03*
%TO.P,PROG,4,Pin_4*%
%TO.N,/C2DAT*%
X148218027Y-73807006D03*
%TO.P,PROG,5,Pin_5*%
%TO.N,unconnected-(J1-Pad5)*%
X148218027Y-70214904D03*
%TO.P,PROG,6,Pin_6*%
%TO.N,unconnected-(J1-Pad6)*%
X146421975Y-72010955D03*
%TO.P,PROG,7,Pin_7*%
%TO.N,/C2CLK*%
X146421975Y-68418852D03*
%TO.P,PROG,8,Pin_8*%
%TO.N,unconnected-(J1-Pad8)*%
X144625924Y-70214904D03*
%TO.P,PROG,9,Pin_9*%
%TO.N,unconnected-(J1-Pad9)*%
X144625924Y-66622801D03*
%TO.P,PROG,10,Pin_10*%
%TO.N,unconnected-(J1-Pad10)*%
X142829873Y-68418852D03*
%TD*%
D10*
%TO.P,R1,1*%
%TO.N,Net-(D1-Pad2)*%
X140240000Y-78740000D03*
%TO.P,R1,2*%
%TO.N,GPIO1*%
X142240000Y-78740000D03*
%TD*%
D15*
%TO.P,SW1,1,1*%
%TO.N,GPIO2*%
X143000000Y-99060000D03*
%TO.P,SW1,2,2*%
%TO.N,+3V3*%
X136400000Y-99060000D03*
%TD*%
D16*
%TO.P,D2,1,K*%
%TO.N,GND*%
X131055000Y-73660000D03*
%TO.P,D2,2,A*%
%TO.N,Net-(D2-Pad2)*%
X133105000Y-73660000D03*
%TD*%
D17*
%TO.P,J3,1,Pin_1*%
%TO.N,GND*%
X132080000Y-68580000D03*
D18*
%TO.P,J3,2,Pin_2*%
%TO.N,/VPP*%
X134620000Y-68580000D03*
%TD*%
D19*
%TO.P,U1,1*%
%TO.N,unconnected-(U1-Pad1)*%
X137225000Y-82550000D03*
%TO.P,U1,2*%
%TO.N,/VPP*%
X137225000Y-83820000D03*
%TO.P,U1,3*%
%TO.N,GND*%
X137225000Y-85090000D03*
%TO.P,U1,4*%
X137225000Y-86360000D03*
%TO.P,U1,5*%
%TO.N,/TXP*%
X137225000Y-87630000D03*
%TO.P,U1,6*%
%TO.N,+3V3*%
X137225000Y-88900000D03*
%TO.P,U1,7*%
%TO.N,unconnected-(U1-Pad7)*%
X137225000Y-90170000D03*
%TO.P,U1,8*%
%TO.N,unconnected-(U1-Pad8)*%
X142175000Y-90170000D03*
%TO.P,U1,9*%
%TO.N,/C2CLK*%
X142175000Y-88900000D03*
%TO.P,U1,10*%
%TO.N,/C2DAT*%
X142175000Y-87630000D03*
%TO.P,U1,11*%
%TO.N,GPIO3*%
X142175000Y-86360000D03*
%TO.P,U1,12*%
%TO.N,GPIO2*%
X142175000Y-85090000D03*
%TO.P,U1,13*%
%TO.N,GPIO1*%
X142175000Y-83820000D03*
%TO.P,U1,14*%
%TO.N,GPIO8*%
X142175000Y-82550000D03*
%TD*%
D16*
%TO.P,D3,1,K*%
%TO.N,GND*%
X128515000Y-99060000D03*
%TO.P,D3,2,A*%
%TO.N,Net-(D3-Pad2)*%
X130565000Y-99060000D03*
%TD*%
%TO.P,D1,1,K*%
%TO.N,GND*%
X131055000Y-78740000D03*
%TO.P,D1,2,A*%
%TO.N,Net-(D1-Pad2)*%
X133105000Y-78740000D03*
%TD*%
D17*
%TO.P,AE1,1,A*%
%TO.N,Net-(AE1-Pad1)*%
X121920000Y-76200000D03*
%TD*%
D10*
%TO.P,R2,1*%
%TO.N,Net-(D2-Pad2)*%
X140240000Y-73660000D03*
%TO.P,R2,2*%
%TO.N,GPIO3*%
X142240000Y-73660000D03*
%TD*%
D20*
%TO.P,BT1,1,+*%
%TO.N,+3V3*%
X149860000Y-86360000D03*
D21*
%TO.P,BT1,2,-*%
%TO.N,GND*%
X129370000Y-86360000D03*
%TD*%
D22*
%TO.N,+3V3*%
X134620000Y-93980000D03*
%TO.N,GND*%
X152400000Y-91440000D03*
X134620000Y-83820000D03*
%TO.N,/C2CLK*%
X140391683Y-87628048D03*
%TO.N,/C2DAT*%
X144780000Y-88900000D03*
%TO.N,GPIO3*%
X142240000Y-76200000D03*
X140361215Y-84695664D03*
%TO.N,GPIO8*%
X132080000Y-91440000D03*
X139306844Y-82890723D03*
%TD*%
D23*
%TO.N,+3V3*%
X134620000Y-93980000D02*
X136400000Y-95760000D01*
X136400000Y-95760000D02*
X136400000Y-99060000D01*
X137225000Y-88900000D02*
X136848249Y-88900000D01*
X136848249Y-88900000D02*
X134620000Y-91128249D01*
X134620000Y-91128249D02*
X134620000Y-93980000D01*
%TO.N,GND*%
X135890000Y-85090000D02*
X134620000Y-83820000D01*
X131055000Y-73660000D02*
X132080000Y-72635000D01*
X152400000Y-92440000D02*
X152400000Y-91440000D01*
X127000000Y-88730000D02*
X129370000Y-86360000D01*
X137225000Y-85090000D02*
X135890000Y-85090000D01*
X131055000Y-78740000D02*
X131055000Y-73660000D01*
X128515000Y-99060000D02*
X127000000Y-97545000D01*
X137225000Y-86360000D02*
X136848249Y-86360000D01*
X137225000Y-86360000D02*
X137225000Y-85090000D01*
X150860000Y-93980000D02*
X152400000Y-92440000D01*
X132080000Y-72635000D02*
X132080000Y-68580000D01*
X127000000Y-97545000D02*
X127000000Y-88730000D01*
%TO.N,Net-(D1-Pad2)*%
X133105000Y-78740000D02*
X140240000Y-78740000D01*
%TO.N,Net-(D2-Pad2)*%
X133105000Y-73660000D02*
X140240000Y-73660000D01*
%TO.N,Net-(D3-Pad2)*%
X128540000Y-93980000D02*
X130565000Y-96005000D01*
X130565000Y-96005000D02*
X130565000Y-99060000D01*
%TO.N,/C2CLK*%
X141663635Y-88900000D02*
X142175000Y-88900000D01*
X140391683Y-87628048D02*
X141663635Y-88900000D01*
%TO.N,/C2DAT*%
X144780000Y-88900000D02*
X143510000Y-87630000D01*
X143510000Y-87630000D02*
X142175000Y-87630000D01*
%TO.N,GPIO1*%
X144189758Y-78740000D02*
X142240000Y-78740000D01*
X142175000Y-83820000D02*
X144096191Y-83820000D01*
X144364252Y-83551939D02*
X144364252Y-78914494D01*
X144096191Y-83820000D02*
X144364252Y-83551939D01*
X144364252Y-78914494D02*
X144189758Y-78740000D01*
%TO.N,GPIO3*%
X140361215Y-84922966D02*
X141798249Y-86360000D01*
X142240000Y-76200000D02*
X142240000Y-73660000D01*
X140361215Y-84695664D02*
X140361215Y-84922966D01*
X142175000Y-86360000D02*
X141798249Y-86360000D01*
%TO.N,GPIO8*%
X139306844Y-82890723D02*
X139647567Y-82550000D01*
X139647567Y-82550000D02*
X142175000Y-82550000D01*
X130540000Y-93980000D02*
X132080000Y-92440000D01*
X132080000Y-92440000D02*
X132080000Y-91440000D01*
%TO.N,GPIO2*%
X143000000Y-99060000D02*
X148080000Y-93980000D01*
X142551751Y-85090000D02*
X148860000Y-91398249D01*
X142175000Y-85090000D02*
X142551751Y-85090000D01*
X148860000Y-91398249D02*
X148860000Y-93980000D01*
X148080000Y-93980000D02*
X148860000Y-93980000D01*
%TO.N,/TXP*%
X135890000Y-87630000D02*
X137225000Y-87630000D01*
X129371648Y-82448962D02*
X130708962Y-82448962D01*
X130708962Y-82448962D02*
X135890000Y-87630000D01*
%TO.N,Net-(AE1-Pad1)*%
X127651648Y-82448962D02*
X121920000Y-76717314D01*
X121920000Y-76717314D02*
X121920000Y-76200000D01*
%TD*%
M02*
