M48
; DRILL file {KiCad 6.0.9-8da3e8f707~117~ubuntu22.04.1} date Tue 29 Nov 2022 09:47:10 AM EST
; FORMAT={-:-/ absolute / inch / decimal}
; #@! TF.CreationDate,2022-11-29T09:47:10-05:00
; #@! TF.GenerationSoftware,Kicad,Pcbnew,6.0.9-8da3e8f707~117~ubuntu22.04.1
; #@! TF.FileFunction,Plated,1,4,PTH
FMAT,2
INCH
; #@! TA.AperFunction,Plated,PTH,ViaDrill
T1C0.0157
; #@! TA.AperFunction,Plated,PTH,ComponentDrill
T2C0.0394
; #@! TA.AperFunction,Plated,PTH,ComponentDrill
T3C0.0591
%
G90
G05
T1
X5.2Y-3.6
X5.3Y-3.3
X5.3Y-3.7
X5.4845Y-3.2634
X5.526Y-3.3345
X5.5272Y-3.4499
X5.6Y-3.0
X5.7Y-3.5
X6.0Y-3.6
T2
X4.8Y-3.0
X5.2Y-2.7
X5.3Y-2.7
X5.6232Y-2.6937
X5.6939Y-2.6229
X5.6939Y-2.7644
X5.7646Y-2.6937
X5.7646Y-2.8351
X5.8354Y-2.7644
X5.8354Y-2.9058
X5.9061Y-2.8351
X5.9061Y-2.9765
X5.9768Y-2.9058
T3
X5.0933Y-3.4
X5.9Y-3.4
T0
M30
